Pretension2-Thin.ufo
<glyph name="one.ss01" format="2">
  <advance width="844"/>
  <unicode hex="0031"/>
  <outline>
    <contour>
      <point x="566" y="0" type="line"/>
      <point x="566" y="1361" type="line"/>
      <point x="569" y="1359" type="line"/>
      <point x="516" y="1277"/>
      <point x="420" y="1229"/>
      <point x="269" y="1208" type="curve" smooth="yes"/>
      <point x="221" y="1201"/>
      <point x="178" y="1198"/>
      <point x="138" y="1198" type="curve"/>
      <point x="138" y="1244" type="line"/>
      <point x="173" y="1244"/>
      <point x="207" y="1249"/>
      <point x="261" y="1256" type="curve" smooth="yes"/>
      <point x="441" y="1279"/>
      <point x="546" y="1356"/>
      <point x="572" y="1490" type="curve"/>
      <point x="612" y="1490" type="line"/>
      <point x="612" y="0" type="line"/>
    </contour>
  </outline>
</glyph>
<glyph name="Z" format="2">
  <advance width="1244"/>
  <unicode hex="005A"/>
  <anchor x="735" y="0" name="m.uni0326"/>
  <anchor x="745" y="1490" name="m.uni030F_1"/>
  <outline>
    <contour>
      <point x="154" y="0" type="line"/>
      <point x="154" y="46" type="line"/>
      <point x="892" y="1222" type="line"/>
      <point x="930" y="1281"/>
      <point x="1004" y="1401"/>
      <point x="1041" y="1460" type="qcurve"/>
      <point x="1051" y="1442" type="line"/>
      <point x="969" y="1442"/>
      <point x="807" y="1442"/>
      <point x="725" y="1442" type="qcurve" smooth="yes"/>
      <point x="160" y="1442" type="line"/>
      <point x="160" y="1490" type="line"/>
      <point x="1086" y="1490" type="line"/>
      <point x="1086" y="1442" type="line"/>
      <point x="342" y="256" type="line" smooth="yes"/>
      <point x="306" y="199"/>
      <point x="235" y="85"/>
      <point x="199" y="28" type="qcurve"/>
      <point x="189" y="46" type="line"/>
      <point x="267" y="46"/>
      <point x="424" y="46"/>
      <point x="502" y="46" type="qcurve" smooth="yes"/>
      <point x="1090" y="46" type="line"/>
      <point x="1090" y="0" type="line"/>
    </contour>
  </outline>
</glyph>
<glyph name="threesuperior" format="2">
  <advance width="836"/>
  <unicode hex="00B3"/>
  <anchor x="299" y="1606" name="m.uni030F_1"/>
  <outline>
    <contour>
      <point x="423" y="906" type="qcurve" smooth="yes"/>
      <point x="341" y="906"/>
      <point x="207" y="956"/>
      <point x="128" y="1046"/>
      <point x="126" y="1105" type="qcurve"/>
      <point x="175" y="1105" type="line"/>
      <point x="177" y="1036"/>
      <point x="320" y="950"/>
      <point x="424" y="950" type="qcurve" smooth="yes"/>
      <point x="541" y="950"/>
      <point x="672" y="1053"/>
      <point x="672" y="1128" type="qcurve" smooth="yes"/>
      <point x="672" y="1211"/>
      <point x="507" y="1313"/>
      <point x="376" y="1313" type="qcurve" smooth="yes"/>
      <point x="333" y="1313" type="line"/>
      <point x="333" y="1354" type="line"/>
      <point x="628" y="1636" type="line"/>
      <point x="628" y="1639" type="line"/>
      <point x="167" y="1639" type="line"/>
      <point x="167" y="1683" type="line"/>
      <point x="694" y="1683" type="line"/>
      <point x="694" y="1647" type="line"/>
      <point x="367" y="1331" type="line"/>
      <point x="367" y="1344" type="line"/>
      <point x="474" y="1352"/>
      <point x="633" y="1297"/>
      <point x="721" y="1194"/>
      <point x="721" y="1128" type="qcurve" smooth="yes"/>
      <point x="721" y="1067"/>
      <point x="649" y="966"/>
      <point x="515" y="906"/>
    </contour>
  </outline>
</glyph>
<glyph name="ordmasculine" format="2">
  <advance width="800"/>
  <unicode hex="00BA"/>
  <outline>
    <contour>
      <point x="401" y="690" type="qcurve" smooth="yes"/>
      <point x="311" y="690"/>
      <point x="169" y="790"/>
      <point x="87" y="963"/>
      <point x="87" y="1074" type="qcurve" smooth="yes"/>
      <point x="87" y="1185"/>
      <point x="169" y="1360"/>
      <point x="311" y="1462"/>
      <point x="401" y="1462" type="qcurve" smooth="yes"/>
      <point x="490" y="1462"/>
      <point x="631" y="1360"/>
      <point x="713" y="1185"/>
      <point x="713" y="1074" type="qcurve" smooth="yes"/>
      <point x="713" y="963"/>
      <point x="631" y="790"/>
      <point x="490" y="690"/>
    </contour>
    <contour>
      <point x="401" y="730" type="qcurve"/>
      <point x="480" y="731"/>
      <point x="601" y="824"/>
      <point x="669" y="980"/>
      <point x="669" y="1074" type="qcurve" smooth="yes"/>
      <point x="669" y="1170"/>
      <point x="600" y="1326"/>
      <point x="479" y="1418"/>
      <point x="401" y="1418" type="qcurve" smooth="yes"/>
      <point x="323" y="1418"/>
      <point x="201" y="1326"/>
      <point x="131" y="1170"/>
      <point x="131" y="1074" type="qcurve" smooth="yes"/>
      <point x="131" y="978"/>
      <point x="201" y="822"/>
      <point x="323" y="731"/>
    </contour>
    <contour>
      <point x="690" y="522" type="line"/>
      <point x="690" y="476" type="line"/>
      <point x="110" y="476" type="line"/>
      <point x="110" y="522" type="line"/>
    </contour>
  </outline>
</glyph>
<glyph name="Thorn" format="2">
  <advance width="1210"/>
  <unicode hex="00DE"/>
  <outline>
    <contour>
      <point x="210" y="1490" type="line"/>
      <point x="256" y="1490" type="line"/>
      <point x="256" y="0" type="line"/>
      <point x="210" y="0" type="line"/>
    </contour>
    <contour>
      <point x="236" y="1132" type="line"/>
      <point x="614" y="1132" type="line" smooth="yes"/>
      <point x="747" y="1132"/>
      <point x="942" y="1038"/>
      <point x="1048" y="864"/>
      <point x="1048" y="745" type="qcurve" smooth="yes"/>
      <point x="1048" y="625"/>
      <point x="944" y="453"/>
      <point x="750" y="362"/>
      <point x="614" y="362" type="qcurve" smooth="yes"/>
      <point x="236" y="362" type="line"/>
      <point x="236" y="408" type="line"/>
      <point x="614" y="408" type="line" smooth="yes"/>
      <point x="737" y="408"/>
      <point x="911" y="486"/>
      <point x="1002" y="637"/>
      <point x="1002" y="745" type="qcurve" smooth="yes"/>
      <point x="1002" y="852"/>
      <point x="908" y="1004"/>
      <point x="735" y="1086"/>
      <point x="614" y="1086" type="qcurve" smooth="yes"/>
      <point x="236" y="1086" type="line"/>
    </contour>
  </outline>
</glyph>
<glyph name="ae" format="2">
  <advance width="1888"/>
  <unicode hex="00E6"/>
  <anchor x="913" y="1303" name="m.uni030F_1"/>
  <outline>
    <contour>
      <point x="477" y="-23" type="qcurve" smooth="yes"/>
      <point x="385" y="-23"/>
      <point x="231" y="52"/>
      <point x="137" y="198"/>
      <point x="137" y="303" type="qcurve" smooth="yes"/>
      <point x="137" y="359"/>
      <point x="173" y="459"/>
      <point x="265" y="540"/>
      <point x="430" y="596"/>
      <point x="559" y="614" type="qcurve" smooth="yes"/>
      <point x="858" y="656" type="line"/>
      <point x="858" y="803" type="line" smooth="yes"/>
      <point x="858" y="932"/>
      <point x="685" y="1088"/>
      <point x="541" y="1088" type="qcurve" smooth="yes"/>
      <point x="423" y="1088"/>
      <point x="247" y="984"/>
      <point x="212" y="890" type="qcurve"/>
      <point x="169" y="908" type="line"/>
      <point x="195" y="977"/>
      <point x="304" y="1079"/>
      <point x="454" y="1135"/>
      <point x="541" y="1135" type="qcurve" smooth="yes"/>
      <point x="626" y="1135"/>
      <point x="761" y="1084"/>
      <point x="855" y="995"/>
      <point x="905" y="874"/>
      <point x="905" y="803" type="qcurve" smooth="yes"/>
      <point x="905" y="349" type="line"/>
      <point x="896" y="349" type="line"/>
      <point x="863" y="215"/>
      <point x="729" y="52"/>
      <point x="561" y="-23"/>
    </contour>
    <contour>
      <point x="477" y="23" type="qcurve" smooth="yes"/>
      <point x="583" y="23"/>
      <point x="756" y="137"/>
      <point x="858" y="342"/>
      <point x="858" y="477" type="qcurve" smooth="yes"/>
      <point x="858" y="616" type="line"/>
      <point x="576" y="570" type="line" smooth="yes"/>
      <point x="427" y="546"/>
      <point x="255" y="481"/>
      <point x="183" y="374"/>
      <point x="183" y="303" type="qcurve" smooth="yes"/>
      <point x="183" y="176"/>
      <point x="353" y="23"/>
    </contour>
    <contour>
      <point x="1324" y="-23" type="qcurve" smooth="yes"/>
      <point x="1156" y="-23"/>
      <point x="920" y="175"/>
      <point x="870" y="335" type="qcurve"/>
      <point x="884" y="817" type="line"/>
      <point x="940" y="961"/>
      <point x="1159" y="1135"/>
      <point x="1300" y="1135" type="qcurve" smooth="yes"/>
      <point x="1398" y="1135"/>
      <point x="1564" y="1051"/>
      <point x="1688" y="905"/>
      <point x="1757" y="713"/>
      <point x="1757" y="605" type="qcurve" smooth="yes"/>
      <point x="1757" y="559" type="line"/>
      <point x="870" y="559" type="line"/>
      <point x="870" y="605" type="line"/>
      <point x="1711" y="605" type="line"/>
      <point x="1711" y="739"/>
      <point x="1600" y="958"/>
      <point x="1414" y="1088"/>
      <point x="1300" y="1088" type="qcurve" smooth="yes"/>
      <point x="1185" y="1088"/>
      <point x="999" y="951"/>
      <point x="887" y="716"/>
      <point x="884" y="567" type="qcurve"/>
      <point x="884" y="561" type="line" smooth="yes"/>
      <point x="884" y="415"/>
      <point x="986" y="170"/>
      <point x="1183" y="23"/>
      <point x="1324" y="23" type="qcurve" smooth="yes"/>
      <point x="1427" y="23"/>
      <point x="1567" y="96"/>
      <point x="1652" y="191"/>
      <point x="1673" y="224" type="qcurve"/>
      <point x="1711" y="198" type="line"/>
      <point x="1686" y="156"/>
      <point x="1588" y="52"/>
      <point x="1433" y="-23"/>
    </contour>
  </outline>
</glyph>
<glyph name="tonesix" format="2">
  <advance width="1108"/>
  <unicode hex="0185"/>
  <outline>
    <contour>
      <point x="178" y="1536" type="line"/>
      <point x="222" y="1536" type="line"/>
      <point x="222" y="1048" type="line"/>
      <point x="178" y="1048" type="line"/>
      <point x="72" y="1286" type="line"/>
      <point x="72" y="1300" type="line"/>
    </contour>
    <contour>
      <point x="216" y="832" type="line"/>
      <point x="248" y="832" type="line"/>
      <point x="278" y="925"/>
      <point x="388" y="1061"/>
      <point x="538" y="1134"/>
      <point x="626" y="1134" type="qcurve" smooth="yes"/>
      <point x="758" y="1134"/>
      <point x="952" y="982"/>
      <point x="1058" y="720"/>
      <point x="1058" y="556" type="qcurve" smooth="yes"/>
      <point x="1058" y="391"/>
      <point x="952" y="128"/>
      <point x="759" y="-24"/>
      <point x="626" y="-24" type="qcurve" smooth="yes"/>
      <point x="537" y="-24"/>
      <point x="388" y="50"/>
      <point x="279" y="187"/>
      <point x="248" y="280" type="qcurve"/>
      <point x="216" y="280" type="line"/>
    </contour>
    <contour>
      <point x="1010" y="556" type="qcurve"/>
      <point x="1011" y="707"/>
      <point x="917" y="948"/>
      <point x="745" y="1088"/>
      <point x="626" y="1088" type="qcurve" smooth="yes"/>
      <point x="508" y="1088"/>
      <point x="336" y="948"/>
      <point x="242" y="707"/>
      <point x="242" y="556" type="qcurve" smooth="yes"/>
      <point x="242" y="405"/>
      <point x="336" y="164"/>
      <point x="508" y="24"/>
      <point x="626" y="24" type="qcurve" smooth="yes"/>
      <point x="745" y="24"/>
      <point x="918" y="164"/>
      <point x="1011" y="405"/>
    </contour>
    <contour>
      <point x="196" y="1490" type="line"/>
      <point x="242" y="1490" type="line"/>
      <point x="242" y="832" type="line"/>
      <point x="230" y="558" type="line"/>
      <point x="242" y="280" type="line"/>
      <point x="242" y="0" type="line"/>
      <point x="196" y="0" type="line"/>
    </contour>
  </outline>
</glyph>
<glyph name="Dhook" format="2">
  <advance width="1622"/>
  <unicode hex="018A"/>
  <anchor x="1164" y="0" name="m.uni0326"/>
  <anchor x="1103" y="1490" name="m.uni030F_1"/>
  <outline>
    <contour>
      <point x="86" y="1118" type="line"/>
      <point x="86" y="1280" type="line" smooth="yes"/>
      <point x="86" y="1382"/>
      <point x="187" y="1490"/>
      <point x="282" y="1490" type="qcurve" smooth="yes"/>
      <point x="392" y="1490" type="line"/>
      <point x="392" y="1444" type="line"/>
      <point x="286" y="1444" type="line" smooth="yes"/>
      <point x="207" y="1444"/>
      <point x="132" y="1364"/>
      <point x="132" y="1280" type="qcurve" smooth="yes"/>
      <point x="132" y="1118" type="line"/>
    </contour>
    <contour>
      <point x="782" y="0" type="qcurve" smooth="yes"/>
      <point x="416" y="0" type="line"/>
      <point x="416" y="46" type="line"/>
      <point x="782" y="46" type="line" smooth="yes"/>
      <point x="989" y="46"/>
      <point x="1278" y="214"/>
      <point x="1428" y="530"/>
      <point x="1428" y="750" type="qcurve" smooth="yes"/>
      <point x="1428" y="968"/>
      <point x="1285" y="1278"/>
      <point x="1014" y="1444"/>
      <point x="820" y="1444" type="qcurve" smooth="yes"/>
      <point x="416" y="1444" type="line"/>
      <point x="416" y="1490" type="line"/>
      <point x="820" y="1490" type="line" smooth="yes"/>
      <point x="1026" y="1490"/>
      <point x="1318" y="1313"/>
      <point x="1474" y="982"/>
      <point x="1474" y="750" type="qcurve" smooth="yes"/>
      <point x="1474" y="513"/>
      <point x="1311" y="177"/>
      <point x="1001" y="0"/>
    </contour>
    <contour>
      <point x="438" y="1490" type="line"/>
      <point x="438" y="0" type="line"/>
      <point x="392" y="0" type="line"/>
      <point x="392" y="1490" type="line"/>
    </contour>
  </outline>
</glyph>
<glyph name="Ghook.1" format="2">
  <advance width="1535"/>
  <unicode hex="0193"/>
  <unicode hex="E004"/>
  <anchor x="714" y="0" name="m.uni0326"/>
  <anchor x="726" y="1490" name="m.uni030F_1"/>
  <outline>
    <contour>
      <point x="1289" y="1024" type="line"/>
      <point x="1289" y="1478" type="line" smooth="yes"/>
      <point x="1289" y="1580"/>
      <point x="1381" y="1676"/>
      <point x="1473" y="1676" type="qcurve" smooth="yes"/>
      <point x="1487" y="1676"/>
      <point x="1528" y="1676"/>
      <point x="1545" y="1676" type="qcurve"/>
      <point x="1545" y="1630" type="line"/>
      <point x="1526" y="1630"/>
      <point x="1486" y="1630"/>
      <point x="1473" y="1630" type="qcurve" smooth="yes"/>
      <point x="1401" y="1630"/>
      <point x="1335" y="1560"/>
      <point x="1335" y="1478" type="qcurve" smooth="yes"/>
      <point x="1335" y="1024" type="line"/>
    </contour>
    <contour>
      <point x="770" y="-20" type="qcurve" smooth="yes"/>
      <point x="582" y="-20"/>
      <point x="302" y="172"/>
      <point x="148" y="517"/>
      <point x="148" y="744" type="qcurve" smooth="yes"/>
      <point x="148" y="974"/>
      <point x="303" y="1318"/>
      <point x="581" y="1510"/>
      <point x="766" y="1510" type="qcurve" smooth="yes"/>
      <point x="896" y="1510"/>
      <point x="1097" y="1420"/>
      <point x="1239" y="1274"/>
      <point x="1323" y="1104"/>
      <point x="1336" y="1024" type="qcurve"/>
      <point x="1289" y="1024" type="line"/>
      <point x="1276" y="1100"/>
      <point x="1195" y="1255"/>
      <point x="1062" y="1385"/>
      <point x="880" y="1464"/>
      <point x="766" y="1464" type="qcurve" smooth="yes"/>
      <point x="595" y="1464"/>
      <point x="337" y="1284"/>
      <point x="194" y="960"/>
      <point x="194" y="744" type="qcurve" smooth="yes"/>
      <point x="194" y="532"/>
      <point x="336" y="208"/>
      <point x="595" y="26"/>
      <point x="770" y="26" type="qcurve" smooth="yes"/>
      <point x="933" y="26"/>
      <point x="1172" y="175"/>
      <point x="1303" y="449"/>
      <point x="1303" y="636" type="qcurve"/>
      <point x="1342" y="636" type="line"/>
      <point x="1342" y="628" type="line" smooth="yes"/>
      <point x="1342" y="481"/>
      <point x="1262" y="242"/>
      <point x="1112" y="72"/>
      <point x="901" y="-20"/>
    </contour>
    <contour>
      <point x="1300" y="0" type="line"/>
      <point x="1300" y="279" type="line"/>
      <point x="1312" y="626" type="line"/>
      <point x="784" y="626" type="line"/>
      <point x="784" y="672" type="line"/>
      <point x="1346" y="672" type="line"/>
      <point x="1346" y="0" type="line"/>
    </contour>
  </outline>
</glyph>
<glyph name="Yhook" format="2">
  <advance width="1274"/>
  <unicode hex="01B3"/>
  <outline>
    <contour>
      <point x="568" y="724" type="line"/>
      <point x="568" y="760" type="line"/>
      <point x="602" y="760" type="line"/>
      <point x="602" y="724" type="line"/>
    </contour>
    <contour>
      <point x="26" y="1490" type="line"/>
      <point x="84" y="1490" type="line"/>
      <point x="584" y="756" type="line"/>
      <point x="1048" y="1434" type="line"/>
      <point x="1080" y="1479"/>
      <point x="1176" y="1515"/>
      <point x="1268" y="1503"/>
      <point x="1292" y="1476" type="qcurve"/>
      <point x="1260" y="1446" type="line"/>
      <point x="1223" y="1469"/>
      <point x="1119" y="1450"/>
      <point x="1080" y="1394" type="qcurve" smooth="yes"/>
      <point x="608" y="706" type="line"/>
      <point x="608" y="0" type="line"/>
      <point x="562" y="0" type="line"/>
      <point x="562" y="706" type="line"/>
    </contour>
  </outline>
</glyph>
<glyph name="Nlongrightleg" format="2">
  <advance width="1062"/>
  <unicode hex="0220"/>
  <outline>
    <contour>
      <point x="968" y="-418" type="line"/>
      <point x="920" y="-418" type="line"/>
      <point x="920" y="950" type="line"/>
      <point x="921" y="1146"/>
      <point x="822" y="1370"/>
      <point x="627" y="1464"/>
      <point x="482" y="1464" type="qcurve" smooth="yes"/>
      <point x="376" y="1464"/>
      <point x="205" y="1417"/>
      <point x="136" y="1370" type="qcurve"/>
      <point x="114" y="1412" type="line"/>
      <point x="185" y="1460"/>
      <point x="365" y="1510"/>
      <point x="478" y="1510" type="qcurve" smooth="yes"/>
      <point x="636" y="1510"/>
      <point x="854" y="1403"/>
      <point x="968" y="1157"/>
      <point x="968" y="946" type="qcurve" smooth="yes"/>
    </contour>
    <contour>
      <point x="148" y="1490" type="line"/>
      <point x="148" y="0" type="line"/>
      <point x="102" y="0" type="line"/>
      <point x="102" y="1490" type="line"/>
    </contour>
  </outline>
</glyph>
<glyph name="ou" format="2">
  <advance width="1212"/>
  <unicode hex="0223"/>
  <outline>
    <contour>
      <point x="562" y="830" type="qcurve" smooth="yes"/>
      <point x="650" y="830" type="line" smooth="yes"/>
      <point x="815" y="830"/>
      <point x="1039" y="734"/>
      <point x="1154" y="548"/>
      <point x="1154" y="412" type="qcurve" smooth="yes"/>
      <point x="1154" y="275"/>
      <point x="1033" y="81"/>
      <point x="804" y="-20"/>
      <point x="640" y="-20" type="qcurve" smooth="yes"/>
      <point x="574" y="-20" type="line" smooth="yes"/>
      <point x="410" y="-20"/>
      <point x="179" y="81"/>
      <point x="58" y="274"/>
      <point x="58" y="412" type="qcurve" smooth="yes"/>
      <point x="58" y="549"/>
      <point x="172" y="734"/>
      <point x="397" y="830"/>
    </contour>
    <contour>
      <point x="650" y="782" type="qcurve"/>
      <point x="562" y="782" type="line"/>
      <point x="334" y="783"/>
      <point x="104" y="597"/>
      <point x="104" y="412" type="qcurve" smooth="yes"/>
      <point x="104" y="226"/>
      <point x="346" y="26"/>
      <point x="572" y="26" type="qcurve" smooth="yes"/>
      <point x="640" y="26" type="line" smooth="yes"/>
      <point x="866" y="26"/>
      <point x="1106" y="226"/>
      <point x="1106" y="412" type="qcurve" smooth="yes"/>
      <point x="1106" y="595"/>
      <point x="876" y="783"/>
    </contour>
    <contour>
      <point x="666" y="830" type="line" smooth="yes"/>
      <point x="805" y="830"/>
      <point x="1000" y="913"/>
      <point x="1102" y="1074"/>
      <point x="1102" y="1188" type="qcurve" smooth="yes"/>
      <point x="1102" y="1325"/>
      <point x="978" y="1490"/>
      <point x="862" y="1508" type="qcurve"/>
      <point x="862" y="1556" type="line"/>
      <point x="954" y="1542"/>
      <point x="1081" y="1446"/>
      <point x="1148" y="1292"/>
      <point x="1148" y="1188" type="qcurve" smooth="yes"/>
      <point x="1148" y="1060"/>
      <point x="1033" y="878"/>
      <point x="817" y="782"/>
      <point x="664" y="782" type="qcurve" smooth="yes"/>
      <point x="546" y="782" type="line"/>
      <point x="394" y="783"/>
      <point x="178" y="879"/>
      <point x="64" y="1060"/>
      <point x="64" y="1188" type="qcurve" smooth="yes"/>
      <point x="64" y="1288"/>
      <point x="123" y="1436"/>
      <point x="238" y="1531"/>
      <point x="322" y="1548" type="qcurve"/>
      <point x="322" y="1498" type="line"/>
      <point x="218" y="1476"/>
      <point x="110" y="1318"/>
      <point x="110" y="1188" type="qcurve" smooth="yes"/>
      <point x="110" y="1073"/>
      <point x="211" y="913"/>
      <point x="406" y="830"/>
      <point x="546" y="830" type="qcurve" smooth="yes"/>
    </contour>
  </outline>
</glyph>
<glyph name="eopenreversedhook" format="2">
  <advance width="1254"/>
  <unicode hex="025D"/>
  <anchor x="709" y="1242" name="m.uni030F_1"/>
  <outline>
    <contour>
      <point x="848" y="818" type="line"/>
      <point x="848" y="864" type="line"/>
      <point x="1018" y="890" type="line"/>
      <point x="1027" y="809"/>
      <point x="1066" y="705"/>
      <point x="1128" y="655"/>
      <point x="1170" y="654" type="qcurve"/>
      <point x="1188" y="653"/>
      <point x="1220" y="659"/>
      <point x="1232" y="664" type="qcurve"/>
      <point x="1244" y="624" type="line"/>
      <point x="1224" y="617"/>
      <point x="1183" y="608"/>
      <point x="1160" y="608" type="qcurve"/>
      <point x="1113" y="609"/>
      <point x="1039" y="663"/>
      <point x="993" y="765"/>
      <point x="986" y="838" type="qcurve"/>
    </contour>
    <contour>
      <point x="503" y="-20" type="qcurve" smooth="yes"/>
      <point x="383" y="-20"/>
      <point x="234" y="56"/>
      <point x="153" y="194"/>
      <point x="134" y="286" type="qcurve"/>
      <point x="179" y="294" type="line"/>
      <point x="198" y="211"/>
      <point x="266" y="91"/>
      <point x="394" y="26"/>
      <point x="503" y="26" type="qcurve" smooth="yes"/>
      <point x="664" y="26"/>
      <point x="853" y="168"/>
      <point x="853" y="282" type="qcurve" smooth="yes"/>
      <point x="853" y="365"/>
      <point x="767" y="487"/>
      <point x="622" y="554"/>
      <point x="533" y="554" type="qcurve" smooth="yes"/>
      <point x="421" y="554" type="line"/>
      <point x="421" y="600" type="line"/>
      <point x="501" y="600" type="line" smooth="yes"/>
      <point x="587" y="600"/>
      <point x="733" y="557"/>
      <point x="841" y="476"/>
      <point x="901" y="360"/>
      <point x="901" y="286" type="qcurve" smooth="yes"/>
      <point x="901" y="198"/>
      <point x="806" y="60"/>
      <point x="628" y="-20"/>
    </contour>
    <contour>
      <point x="501" y="554" type="qcurve" smooth="yes"/>
      <point x="421" y="554" type="line"/>
      <point x="421" y="600" type="line"/>
      <point x="533" y="600" type="line" smooth="yes"/>
      <point x="676" y="600"/>
      <point x="823" y="724"/>
      <point x="823" y="834" type="qcurve"/>
      <point x="821" y="950"/>
      <point x="653" y="1086"/>
      <point x="505" y="1086" type="qcurve" smooth="yes"/>
      <point x="380" y="1086"/>
      <point x="241" y="975"/>
      <point x="210" y="856" type="qcurve"/>
      <point x="165" y="868" type="line"/>
      <point x="188" y="955"/>
      <point x="274" y="1072"/>
      <point x="409" y="1132"/>
      <point x="505" y="1132" type="qcurve" smooth="yes"/>
      <point x="617" y="1132"/>
      <point x="780" y="1057"/>
      <point x="869" y="921"/>
      <point x="869" y="830" type="qcurve" smooth="yes"/>
      <point x="869" y="763"/>
      <point x="822" y="660"/>
      <point x="729" y="590"/>
      <point x="591" y="554"/>
    </contour>
  </outline>
</glyph>
<glyph name="hturned" format="2">
  <advance width="1196"/>
  <unicode hex="0265"/>
  <anchor x="797" y="1242" name="m.uni0326"/>
  <anchor x="790" y="1242" name="m.uni030F_1"/>
  <anchor x="1222" y="1242" name="m.uni0327_3"/>
  <outline>
    <contour>
      <point x="952" y="368" type="qcurve" smooth="yes"/>
      <point x="952" y="1118" type="line"/>
      <point x="998" y="1118" type="line"/>
      <point x="998" y="-372" type="line"/>
      <point x="952" y="-372" type="line"/>
      <point x="952" y="240" type="line"/>
      <point x="964" y="240" type="line"/>
      <point x="928" y="112"/>
      <point x="716" y="-16"/>
      <point x="588" y="-16" type="qcurve" smooth="yes"/>
      <point x="474" y="-16"/>
      <point x="298" y="81"/>
      <point x="198" y="254"/>
      <point x="198" y="368" type="qcurve" smooth="yes"/>
      <point x="198" y="1118" type="line"/>
      <point x="244" y="1118" type="line"/>
      <point x="244" y="368" type="line" smooth="yes"/>
      <point x="244" y="216"/>
      <point x="436" y="30"/>
      <point x="588" y="30" type="qcurve" smooth="yes"/>
      <point x="692" y="30"/>
      <point x="857" y="117"/>
      <point x="952" y="270"/>
    </contour>
  </outline>
</glyph>
<glyph name="phi-ipa" format="2">
  <advance width="1054"/>
  <unicode hex="0278"/>
  <outline>
    <contour>
      <point x="152" y="544" type="qcurve" smooth="yes"/>
      <point x="152" y="568" type="line" smooth="yes"/>
      <point x="152" y="725"/>
      <point x="253" y="980"/>
      <point x="424" y="1132"/>
      <point x="526" y="1132" type="qcurve" smooth="yes"/>
      <point x="631" y="1132"/>
      <point x="802" y="982"/>
      <point x="904" y="726"/>
      <point x="904" y="568" type="qcurve" smooth="yes"/>
      <point x="904" y="544" type="line"/>
      <point x="905" y="386"/>
      <point x="802" y="130"/>
      <point x="631" y="-20"/>
      <point x="526" y="-20" type="qcurve" smooth="yes"/>
      <point x="449" y="-20"/>
      <point x="313" y="68"/>
      <point x="210" y="223"/>
      <point x="152" y="427"/>
    </contour>
    <contour>
      <point x="198" y="568" type="qcurve" smooth="yes"/>
      <point x="198" y="544" type="line" smooth="yes"/>
      <point x="198" y="435"/>
      <point x="250" y="248"/>
      <point x="340" y="106"/>
      <point x="459" y="27"/>
      <point x="526" y="26" type="qcurve"/>
      <point x="594" y="26"/>
      <point x="714" y="105"/>
      <point x="806" y="247"/>
      <point x="858" y="435"/>
      <point x="858" y="544" type="qcurve" smooth="yes"/>
      <point x="858" y="568" type="line" smooth="yes"/>
      <point x="858" y="713"/>
      <point x="768" y="947"/>
      <point x="617" y="1086"/>
      <point x="526" y="1086" type="qcurve"/>
      <point x="459" y="1085"/>
      <point x="340" y="1006"/>
      <point x="249" y="864"/>
      <point x="198" y="677"/>
    </contour>
    <contour>
      <point x="504" y="-396" type="line"/>
      <point x="504" y="1490" type="line"/>
      <point x="550" y="1490" type="line"/>
      <point x="550" y="-396" type="line"/>
    </contour>
  </outline>
</glyph>
<glyph name="shook" format="2">
  <advance width="1010"/>
  <unicode hex="0282"/>
  <anchor x="761" y="0" name="m.uni0326"/>
  <anchor x="757" y="1242" name="m.uni030F_1"/>
  <anchor x="724" y="0" name="m.uni0327_3"/>
  <outline>
    <contour>
      <point x="320" y="-418" type="qcurve" smooth="yes"/>
      <point x="228" y="-418"/>
      <point x="136" y="-322"/>
      <point x="136" y="-220" type="qcurve" smooth="yes"/>
      <point x="136" y="256" type="line"/>
      <point x="182" y="256" type="line"/>
      <point x="182" y="-220" type="line" smooth="yes"/>
      <point x="182" y="-302"/>
      <point x="248" y="-372"/>
      <point x="320" y="-372" type="qcurve" smooth="yes"/>
      <point x="329" y="-372"/>
      <point x="353" y="-372"/>
      <point x="380" y="-372"/>
      <point x="392" y="-372" type="qcurve"/>
      <point x="392" y="-418" type="line"/>
      <point x="381" y="-418"/>
      <point x="354" y="-418"/>
      <point x="329" y="-418"/>
    </contour>
    <contour>
      <point x="504" y="-24" type="qcurve" smooth="yes"/>
      <point x="405" y="-24"/>
      <point x="253" y="42"/>
      <point x="156" y="167"/>
      <point x="136" y="256" type="qcurve"/>
      <point x="182" y="267" type="line"/>
      <point x="207" y="148"/>
      <point x="371" y="22"/>
      <point x="504" y="22" type="qcurve" smooth="yes"/>
      <point x="649" y="22"/>
      <point x="830" y="166"/>
      <point x="830" y="282" type="qcurve" smooth="yes"/>
      <point x="830" y="369"/>
      <point x="721" y="487"/>
      <point x="614" y="514" type="qcurve" smooth="yes"/>
      <point x="440" y="558" type="line" smooth="yes"/>
      <point x="311" y="590"/>
      <point x="178" y="736"/>
      <point x="178" y="840" type="qcurve" smooth="yes"/>
      <point x="178" y="928"/>
      <point x="266" y="1060"/>
      <point x="422" y="1134"/>
      <point x="524" y="1134" type="qcurve" smooth="yes"/>
      <point x="610" y="1134"/>
      <point x="744" y="1078"/>
      <point x="839" y="966"/>
      <point x="866" y="882" type="qcurve"/>
      <point x="820" y="870" type="line"/>
      <point x="786" y="979"/>
      <point x="639" y="1088"/>
      <point x="524" y="1088" type="qcurve" smooth="yes"/>
      <point x="390" y="1088"/>
      <point x="224" y="952"/>
      <point x="224" y="840" type="qcurve" smooth="yes"/>
      <point x="224" y="753"/>
      <point x="335" y="632"/>
      <point x="448" y="603" type="qcurve" smooth="yes"/>
      <point x="624" y="559" type="line" smooth="yes"/>
      <point x="746" y="528"/>
      <point x="876" y="386"/>
      <point x="876" y="282" type="qcurve" smooth="yes"/>
      <point x="876" y="191"/>
      <point x="781" y="53"/>
      <point x="613" y="-24"/>
    </contour>
  </outline>
</glyph>
<glyph name="rsupmod" format="2">
  <advance width="500"/>
  <unicode hex="02B3"/>
  <outline>
    <contour>
      <point x="128" y="744" type="line"/>
      <point x="128" y="1490" type="line"/>
      <point x="172" y="1490" type="line"/>
      <point x="172" y="1370" type="line"/>
      <point x="178" y="1370" type="line"/>
      <point x="201" y="1429"/>
      <point x="320" y="1498"/>
      <point x="396" y="1498" type="qcurve" smooth="yes"/>
      <point x="422" y="1498"/>
      <point x="463" y="1490"/>
      <point x="482" y="1484" type="qcurve"/>
      <point x="466" y="1442" type="line"/>
      <point x="448" y="1450"/>
      <point x="410" y="1454"/>
      <point x="392" y="1454" type="qcurve" smooth="yes"/>
      <point x="299" y="1454"/>
      <point x="172" y="1333"/>
      <point x="172" y="1240" type="qcurve" smooth="yes"/>
      <point x="172" y="744" type="line"/>
    </contour>
  </outline>
</glyph>
<glyph name="finaltsadi-hb" format="2">
  <advance width="690"/>
  <unicode hex="02B5"/>
  <outline>
    <contour>
      <point x="116" y="680" type="qcurve"/>
      <point x="116" y="728" type="line"/>
      <point x="129" y="724"/>
      <point x="154" y="722"/>
      <point x="164" y="722" type="qcurve" smooth="yes"/>
      <point x="246" y="722"/>
      <point x="362" y="824"/>
      <point x="380" y="906" type="qcurve"/>
      <point x="386" y="824" type="line"/>
      <point x="369" y="778"/>
      <point x="305" y="710"/>
      <point x="221" y="674"/>
      <point x="170" y="674" type="qcurve" smooth="yes"/>
      <point x="157" y="674"/>
      <point x="132" y="677"/>
    </contour>
    <contour>
      <point x="578" y="334" type="line"/>
      <point x="570" y="332"/>
      <point x="552" y="329"/>
      <point x="535" y="328"/>
      <point x="526" y="328" type="qcurve" smooth="yes"/>
      <point x="481" y="328"/>
      <point x="414" y="360"/>
      <point x="378" y="432"/>
      <point x="378" y="492" type="qcurve" smooth="yes"/>
      <point x="378" y="1446" type="line"/>
      <point x="424" y="1446" type="line"/>
      <point x="424" y="492" type="line"/>
      <point x="425" y="422"/>
      <point x="479" y="376"/>
      <point x="526" y="376" type="qcurve" smooth="yes"/>
      <point x="540" y="376"/>
      <point x="565" y="378"/>
      <point x="578" y="382" type="qcurve"/>
    </contour>
  </outline>
</glyph>
<glyph name="ysupmod" format="2">
  <advance width="722"/>
  <unicode hex="02B8"/>
  <outline>
    <contour>
      <point x="162" y="450" type="qcurve"/>
      <point x="143" y="451"/>
      <point x="97" y="462"/>
      <point x="82" y="468" type="qcurve"/>
      <point x="96" y="510" type="line"/>
      <point x="166" y="481"/>
      <point x="266" y="531"/>
      <point x="296" y="616" type="qcurve" smooth="yes"/>
      <point x="338" y="734" type="line"/>
      <point x="66" y="1490" type="line"/>
      <point x="116" y="1490" type="line"/>
      <point x="358" y="802" type="line"/>
      <point x="364" y="802" type="line"/>
      <point x="608" y="1490" type="line"/>
      <point x="654" y="1490" type="line"/>
      <point x="338" y="600" type="line"/>
      <point x="313" y="532"/>
      <point x="226" y="451"/>
    </contour>
  </outline>
</glyph>
<glyph name="ringhalfleftmod" format="2">
  <advance width="308"/>
  <unicode hex="02BF"/>
  <outline>
    <contour>
      <point x="286" y="1112" type="line"/>
      <point x="198" y="1111"/>
      <point x="78" y="1226"/>
      <point x="78" y="1310" type="qcurve" smooth="yes"/>
      <point x="78" y="1396"/>
      <point x="197" y="1510"/>
      <point x="286" y="1510" type="qcurve"/>
      <point x="286" y="1464" type="line"/>
      <point x="216" y="1463"/>
      <point x="126" y="1377"/>
      <point x="126" y="1310" type="qcurve" smooth="yes"/>
      <point x="126" y="1245"/>
      <point x="216" y="1158"/>
      <point x="286" y="1158" type="qcurve"/>
    </contour>
  </outline>
</glyph>
<glyph name="xsupmod" format="2">
  <advance width="686"/>
  <unicode hex="02E3"/>
  <outline>
    <contour>
      <point x="142" y="1490" type="line"/>
      <point x="344" y="1166" type="line"/>
      <point x="546" y="1490" type="line"/>
      <point x="600" y="1490" type="line"/>
      <point x="370" y="1128" type="line"/>
      <point x="614" y="744" type="line"/>
      <point x="562" y="744" type="line"/>
      <point x="344" y="1090" type="line"/>
      <point x="126" y="744" type="line"/>
      <point x="72" y="744" type="line"/>
      <point x="318" y="1128" type="line"/>
      <point x="90" y="1490" type="line"/>
    </contour>
  </outline>
</glyph>
<glyph name="brevecomb" format="2">
  <unicode hex="0306"/>
  <anchor x="453" y="1242" name="_m.uni030F_1"/>
  <anchor x="453" y="1242" name="_t.uni030F"/>
  <anchor x="453" y="1711" name="t.uni030F"/>
  <outline>
    <contour>
      <point x="352" y="1270" type="qcurve" smooth="yes"/>
      <point x="279" y="1270"/>
      <point x="160" y="1341"/>
      <point x="90" y="1460"/>
      <point x="90" y="1532" type="qcurve"/>
      <point x="136" y="1532" type="line"/>
      <point x="136" y="1441"/>
      <point x="263" y="1314"/>
      <point x="352" y="1314" type="qcurve" smooth="yes"/>
      <point x="441" y="1314"/>
      <point x="568" y="1441"/>
      <point x="568" y="1532" type="qcurve"/>
      <point x="614" y="1532" type="line"/>
      <point x="614" y="1460"/>
      <point x="544" y="1341"/>
      <point x="426" y="1270"/>
    </contour>
  </outline>
</glyph>
<glyph name="dieresiscomb" format="2">
  <unicode hex="0308"/>
  <unicode hex="E2BF"/>
  <anchor x="598" y="1118" name="_t.uni030F_1"/>
  <anchor x="598" y="1118" name="_t.uni030F"/>
  <anchor x="598" y="1434" name="t.uni030F"/>
  <outline>
    <contour>
      <point x="364" y="1319" type="line"/>
      <point x="364" y="1434" type="line"/>
      <point x="428" y="1434" type="line"/>
      <point x="428" y="1319" type="line"/>
    </contour>
    <contour>
      <point x="768" y="1319" type="line"/>
      <point x="768" y="1434" type="line"/>
      <point x="832" y="1434" type="line"/>
      <point x="832" y="1319" type="line"/>
    </contour>
  </outline>
</glyph>
<glyph name="nottildeabovecomb" format="2">
  <unicode hex="034A"/>
  <outline>
    <contour>
      <point x="-396" y="1306" type="qcurve" smooth="yes"/>
      <point x="-442" y="1306"/>
      <point x="-509" y="1342"/>
      <point x="-568" y="1390"/>
      <point x="-634" y="1426"/>
      <point x="-680" y="1426" type="qcurve" smooth="yes"/>
      <point x="-737" y="1426"/>
      <point x="-819" y="1362"/>
      <point x="-826" y="1312" type="qcurve"/>
      <point x="-872" y="1318" type="line"/>
      <point x="-865" y="1364"/>
      <point x="-812" y="1433"/>
      <point x="-730" y="1472"/>
      <point x="-680" y="1472" type="qcurve" smooth="yes"/>
      <point x="-630" y="1472"/>
      <point x="-558" y="1436"/>
      <point x="-498" y="1388"/>
      <point x="-436" y="1352"/>
      <point x="-396" y="1352" type="qcurve" smooth="yes"/>
      <point x="-346" y="1352"/>
      <point x="-261" y="1415"/>
      <point x="-250" y="1466" type="qcurve"/>
      <point x="-204" y="1454" type="line"/>
      <point x="-214" y="1410"/>
      <point x="-272" y="1343"/>
      <point x="-352" y="1306"/>
    </contour>
    <contour>
      <point x="-612" y="1226" type="line"/>
      <point x="-648" y="1256" type="line"/>
      <point x="-440" y="1536" type="line"/>
      <point x="-406" y="1506" type="line"/>
    </contour>
  </outline>
</glyph>
<glyph name="lefthalfringabovecomb" format="2">
  <unicode hex="0351"/>
  <outline>
    <contour>
      <point x="-340" y="1140" type="line"/>
      <point x="-416" y="1140"/>
      <point x="-506" y="1223"/>
      <point x="-506" y="1292" type="qcurve" smooth="yes"/>
      <point x="-506" y="1360"/>
      <point x="-416" y="1442"/>
      <point x="-340" y="1442" type="qcurve"/>
      <point x="-340" y="1396" type="line"/>
      <point x="-397" y="1396"/>
      <point x="-460" y="1342"/>
      <point x="-460" y="1292" type="qcurve" smooth="yes"/>
      <point x="-460" y="1242"/>
      <point x="-397" y="1186"/>
      <point x="-340" y="1186" type="qcurve"/>
    </contour>
  </outline>
</glyph>
<glyph name="mcomb" format="2">
  <unicode hex="036B"/>
  <outline>
    <contour>
      <point x="-812" y="1632" type="line"/>
      <point x="-812" y="1202" type="line"/>
      <point x="-858" y="1202" type="line"/>
      <point x="-858" y="1754" type="line"/>
      <point x="-824" y="1754" type="line"/>
    </contour>
    <contour>
      <point x="-812" y="1498" type="qcurve"/>
      <point x="-840" y="1496" type="line"/>
      <point x="-841" y="1624"/>
      <point x="-739" y="1762"/>
      <point x="-642" y="1762" type="qcurve" smooth="yes"/>
      <point x="-554" y="1762"/>
      <point x="-474" y="1655"/>
      <point x="-474" y="1558" type="qcurve" smooth="yes"/>
      <point x="-474" y="1202" type="line"/>
      <point x="-520" y="1202" type="line"/>
      <point x="-520" y="1522" type="line"/>
      <point x="-521" y="1633"/>
      <point x="-573" y="1716"/>
      <point x="-642" y="1716" type="qcurve" smooth="yes"/>
      <point x="-730" y="1716"/>
      <point x="-812" y="1608"/>
    </contour>
    <contour>
      <point x="-474" y="1498" type="qcurve"/>
      <point x="-504" y="1496" type="line"/>
      <point x="-503" y="1624"/>
      <point x="-403" y="1762"/>
      <point x="-306" y="1762" type="qcurve" smooth="yes"/>
      <point x="-217" y="1762"/>
      <point x="-136" y="1655"/>
      <point x="-136" y="1558" type="qcurve" smooth="yes"/>
      <point x="-136" y="1202" type="line"/>
      <point x="-184" y="1202" type="line"/>
      <point x="-184" y="1522" type="line"/>
      <point x="-183" y="1633"/>
      <point x="-235" y="1716"/>
      <point x="-306" y="1716" type="qcurve" smooth="yes"/>
      <point x="-393" y="1716"/>
      <point x="-474" y="1608"/>
    </contour>
  </outline>
</glyph>
<glyph name="theta" format="2">
  <advance width="1222"/>
  <unicode hex="03B8"/>
  <outline>
    <contour>
      <point x="611" y="-16" type="qcurve" smooth="yes"/>
      <point x="463" y="-16"/>
      <point x="256" y="151"/>
      <point x="148" y="477"/>
      <point x="148" y="713" type="qcurve" smooth="yes"/>
      <point x="148" y="777" type="line" smooth="yes"/>
      <point x="148" y="1014"/>
      <point x="256" y="1339"/>
      <point x="463" y="1506"/>
      <point x="611" y="1506" type="qcurve" smooth="yes"/>
      <point x="760" y="1506"/>
      <point x="966" y="1339"/>
      <point x="1074" y="1014"/>
      <point x="1074" y="777" type="qcurve" smooth="yes"/>
      <point x="1074" y="713" type="line" smooth="yes"/>
      <point x="1074" y="477"/>
      <point x="966" y="151"/>
      <point x="760" y="-16"/>
    </contour>
    <contour>
      <point x="611" y="30" type="qcurve" smooth="yes"/>
      <point x="813" y="30"/>
      <point x="1028" y="378"/>
      <point x="1028" y="713" type="qcurve" smooth="yes"/>
      <point x="1028" y="777" type="line" smooth="yes"/>
      <point x="1028" y="1112"/>
      <point x="813" y="1460"/>
      <point x="611" y="1460" type="qcurve" smooth="yes"/>
      <point x="409" y="1460"/>
      <point x="194" y="1112"/>
      <point x="194" y="777" type="qcurve" smooth="yes"/>
      <point x="194" y="713" type="line" smooth="yes"/>
      <point x="194" y="378"/>
      <point x="409" y="30"/>
    </contour>
    <contour>
      <point x="170" y="722" type="line"/>
      <point x="170" y="768" type="line"/>
      <point x="1052" y="768" type="line"/>
      <point x="1052" y="722" type="line"/>
    </contour>
  </outline>
</glyph>
<glyph name="omega" format="2">
  <advance width="1696"/>
  <unicode hex="03C9"/>
  <anchor x="1004" y="0" name="m.uni0326"/>
  <anchor x="1004" y="1242" name="m.uni030F_1"/>
  <outline>
    <contour>
      <point x="519" y="-12" type="qcurve" smooth="yes"/>
      <point x="390" y="-12"/>
      <point x="217" y="121"/>
      <point x="130" y="355"/>
      <point x="130" y="506" type="qcurve" smooth="yes"/>
      <point x="130" y="660"/>
      <point x="208" y="893"/>
      <point x="328" y="1061"/>
      <point x="390" y="1118" type="qcurve"/>
      <point x="453" y="1118" type="line"/>
      <point x="392" y="1063"/>
      <point x="264" y="901"/>
      <point x="176" y="669"/>
      <point x="176" y="506" type="qcurve" smooth="yes"/>
      <point x="176" y="294"/>
      <point x="350" y="34"/>
      <point x="519" y="34" type="qcurve" smooth="yes"/>
      <point x="677" y="34"/>
      <point x="825" y="252"/>
      <point x="825" y="439" type="qcurve" smooth="yes"/>
      <point x="825" y="658" type="line"/>
      <point x="871" y="658" type="line"/>
      <point x="871" y="439" type="line" smooth="yes"/>
      <point x="871" y="252"/>
      <point x="1020" y="34"/>
      <point x="1177" y="34" type="qcurve" smooth="yes"/>
      <point x="1347" y="34"/>
      <point x="1520" y="294"/>
      <point x="1520" y="506" type="qcurve" smooth="yes"/>
      <point x="1520" y="669"/>
      <point x="1432" y="901"/>
      <point x="1304" y="1063"/>
      <point x="1243" y="1118" type="qcurve"/>
      <point x="1306" y="1118" type="line"/>
      <point x="1369" y="1061"/>
      <point x="1488" y="893"/>
      <point x="1566" y="660"/>
      <point x="1566" y="506" type="qcurve" smooth="yes"/>
      <point x="1566" y="355"/>
      <point x="1479" y="121"/>
      <point x="1306" y="-12"/>
      <point x="1177" y="-12" type="qcurve" smooth="yes"/>
      <point x="1058" y="-12"/>
      <point x="915" y="93"/>
      <point x="849" y="254"/>
      <point x="844" y="338" type="qcurve"/>
      <point x="852" y="338" type="line"/>
      <point x="848" y="254"/>
      <point x="781" y="93"/>
      <point x="638" y="-12"/>
    </contour>
  </outline>
</glyph>
<glyph name="phigreek" format="2">
  <advance width="1230"/>
  <unicode hex="03D5"/>
  <outline>
    <contour>
      <point x="592" y="-24" type="line" smooth="yes"/>
      <point x="461" y="-24"/>
      <point x="251" y="129"/>
      <point x="130" y="391"/>
      <point x="130" y="556" type="qcurve" smooth="yes"/>
      <point x="130" y="720"/>
      <point x="252" y="982"/>
      <point x="461" y="1134"/>
      <point x="592" y="1134" type="qcurve" smooth="yes"/>
      <point x="638" y="1134" type="line" smooth="yes"/>
      <point x="769" y="1134"/>
      <point x="978" y="982"/>
      <point x="1100" y="720"/>
      <point x="1100" y="556" type="qcurve" smooth="yes"/>
      <point x="1100" y="391"/>
      <point x="979" y="129"/>
      <point x="770" y="-24"/>
      <point x="638" y="-24" type="qcurve" smooth="yes"/>
    </contour>
    <contour>
      <point x="592" y="22" type="qcurve" smooth="yes"/>
      <point x="638" y="22" type="line" smooth="yes"/>
      <point x="757" y="22"/>
      <point x="945" y="162"/>
      <point x="1054" y="404"/>
      <point x="1054" y="556" type="qcurve" smooth="yes"/>
      <point x="1054" y="707"/>
      <point x="944" y="948"/>
      <point x="756" y="1088"/>
      <point x="638" y="1088" type="qcurve" smooth="yes"/>
      <point x="592" y="1088" type="line" smooth="yes"/>
      <point x="474" y="1088"/>
      <point x="286" y="948"/>
      <point x="176" y="707"/>
      <point x="176" y="556" type="qcurve" smooth="yes"/>
      <point x="176" y="404"/>
      <point x="285" y="162"/>
      <point x="474" y="22"/>
    </contour>
    <contour>
      <point x="592" y="-418" type="line"/>
      <point x="592" y="1490" type="line"/>
      <point x="638" y="1490" type="line"/>
      <point x="638" y="-418" type="line"/>
    </contour>
  </outline>
</glyph>
<glyph name="Sigmareversedlunatesymbol" format="2">
  <advance width="1176"/>
  <unicode hex="03FD"/>
  <outline>
    <contour>
      <point x="72" y="440" type="qcurve"/>
      <point x="120" y="440" type="line"/>
      <point x="158" y="235"/>
      <point x="381" y="26"/>
      <point x="562" y="26" type="qcurve" smooth="yes"/>
      <point x="715" y="26"/>
      <point x="936" y="173"/>
      <point x="1056" y="456"/>
      <point x="1056" y="660" type="qcurve" smooth="yes"/>
      <point x="1056" y="830" type="line" smooth="yes"/>
      <point x="1056" y="1030"/>
      <point x="939" y="1313"/>
      <point x="721" y="1464"/>
      <point x="568" y="1464" type="qcurve" smooth="yes"/>
      <point x="393" y="1464"/>
      <point x="158" y="1254"/>
      <point x="120" y="1050" type="qcurve"/>
      <point x="74" y="1050" type="line"/>
      <point x="97" y="1197"/>
      <point x="233" y="1402"/>
      <point x="441" y="1510"/>
      <point x="572" y="1510" type="qcurve" smooth="yes"/>
      <point x="735" y="1510"/>
      <point x="972" y="1346"/>
      <point x="1102" y="1041"/>
      <point x="1102" y="830" type="qcurve" smooth="yes"/>
      <point x="1102" y="662" type="line"/>
      <point x="1103" y="445"/>
      <point x="971" y="140"/>
      <point x="731" y="-20"/>
      <point x="568" y="-20" type="qcurve" smooth="yes"/>
      <point x="432" y="-20"/>
      <point x="227" y="86"/>
      <point x="97" y="292"/>
    </contour>
  </outline>
</glyph>
<glyph name="Gecyr" format="2">
  <advance width="1172"/>
  <unicode hex="0413"/>
  <anchor x="696" y="1490" name="m.uni030F_1"/>
  <outline>
    <contour>
      <point x="1044" y="1490" type="line"/>
      <point x="1044" y="1444" type="line"/>
      <point x="278" y="1444" type="line"/>
      <point x="278" y="0" type="line"/>
      <point x="232" y="0" type="line"/>
      <point x="232" y="1490" type="line"/>
    </contour>
  </outline>
</glyph>
<glyph name="encyr" format="2">
  <advance width="1164"/>
  <unicode hex="043D"/>
  <anchor x="763" y="1242" name="m.uni030F_1"/>
  <outline>
    <contour>
      <point x="942" y="582" type="line"/>
      <point x="942" y="536" type="line"/>
      <point x="228" y="536" type="line"/>
      <point x="228" y="582" type="line"/>
    </contour>
    <contour>
      <point x="244" y="1118" type="line"/>
      <point x="244" y="0" type="line"/>
      <point x="198" y="0" type="line"/>
      <point x="198" y="1118" type="line"/>
    </contour>
    <contour>
      <point x="966" y="1118" type="line"/>
      <point x="966" y="0" type="line"/>
      <point x="920" y="0" type="line"/>
      <point x="920" y="1118" type="line"/>
    </contour>
  </outline>
</glyph>
<glyph name="eiotifiedcyr" format="2">
  <advance width="1500"/>
  <unicode hex="0465"/>
  <outline>
    <contour>
      <point x="1082" y="582" type="line"/>
      <point x="1082" y="536" type="line"/>
      <point x="218" y="536" type="line"/>
      <point x="218" y="582" type="line"/>
    </contour>
    <contour>
      <point x="244" y="1118" type="line"/>
      <point x="244" y="0" type="line"/>
      <point x="198" y="0" type="line"/>
      <point x="198" y="1118" type="line"/>
    </contour>
    <contour>
      <point x="980" y="-24" type="qcurve" smooth="yes"/>
      <point x="844" y="-24"/>
      <point x="632" y="128"/>
      <point x="510" y="391"/>
      <point x="510" y="556" type="qcurve" smooth="yes"/>
      <point x="510" y="720"/>
      <point x="631" y="981"/>
      <point x="844" y="1134"/>
      <point x="980" y="1134" type="qcurve" smooth="yes"/>
      <point x="1080" y="1134"/>
      <point x="1248" y="1048"/>
      <point x="1361" y="894"/>
      <point x="1378" y="792" type="qcurve"/>
      <point x="1332" y="792" type="line"/>
      <point x="1318" y="877"/>
      <point x="1217" y="1010"/>
      <point x="1068" y="1088"/>
      <point x="980" y="1088" type="qcurve" smooth="yes"/>
      <point x="860" y="1088"/>
      <point x="668" y="949"/>
      <point x="556" y="709"/>
      <point x="556" y="556" type="qcurve" smooth="yes"/>
      <point x="556" y="407"/>
      <point x="664" y="165"/>
      <point x="856" y="22"/>
      <point x="980" y="22" type="qcurve" smooth="yes"/>
      <point x="1113" y="22"/>
      <point x="1311" y="189"/>
      <point x="1332" y="326" type="qcurve"/>
      <point x="1380" y="326" type="line"/>
      <point x="1364" y="221"/>
      <point x="1251" y="63"/>
      <point x="1082" y="-24"/>
    </contour>
  </outline>
</glyph>
<glyph name="Izhitsacyr" format="2">
  <advance width="1328"/>
  <unicode hex="0474"/>
  <anchor x="869" y="1490" name="m.uni030F_1"/>
  <outline>
    <contour>
      <point x="1107" y="1380" type="line" smooth="yes"/>
      <point x="1132" y="1449"/>
      <point x="1201" y="1510"/>
      <point x="1254" y="1510" type="qcurve" smooth="yes"/>
      <point x="1262" y="1510" type="line"/>
      <point x="1262" y="1464" type="line"/>
      <point x="1254" y="1464" type="line" smooth="yes"/>
      <point x="1217" y="1464"/>
      <point x="1171" y="1423"/>
      <point x="1154" y="1376" type="qcurve" smooth="yes"/>
      <point x="664" y="0" type="line"/>
      <point x="600" y="0" type="line"/>
      <point x="66" y="1490" type="line"/>
      <point x="115" y="1490" type="line"/>
      <point x="633" y="43" type="line"/>
      <point x="630" y="43" type="line"/>
    </contour>
  </outline>
</glyph>
<glyph name="pokrytiecombcyr" format="2">
  <unicode hex="0487"/>
  <outline>
    <contour>
      <point x="-290" y="1394" type="qcurve" smooth="yes"/>
      <point x="-194" y="1394" type="line"/>
      <point x="-194" y="1346" type="line"/>
      <point x="-294" y="1346" type="line" smooth="yes"/>
      <point x="-332" y="1346"/>
      <point x="-405" y="1380"/>
      <point x="-481" y="1424"/>
      <point x="-564" y="1458"/>
      <point x="-612" y="1458" type="qcurve" smooth="yes"/>
      <point x="-664" y="1458"/>
      <point x="-712" y="1411"/>
      <point x="-712" y="1364" type="qcurve" smooth="yes"/>
      <point x="-712" y="1346" type="line"/>
      <point x="-760" y="1346" type="line"/>
      <point x="-760" y="1364" type="line"/>
      <point x="-759" y="1432"/>
      <point x="-684" y="1506"/>
      <point x="-616" y="1506" type="qcurve" smooth="yes"/>
      <point x="-565" y="1506"/>
      <point x="-478" y="1472"/>
      <point x="-401" y="1427"/>
      <point x="-328" y="1394"/>
    </contour>
  </outline>
</glyph>
<glyph name="macronbrevecomb" format="2">
  <unicode hex="1DCC"/>
  <outline>
    <contour>
      <point x="-208" y="1224" type="qcurve"/>
      <point x="-282" y="1225"/>
      <point x="-387" y="1280"/>
      <point x="-410" y="1332" type="qcurve"/>
      <point x="-1080" y="1332" type="line"/>
      <point x="-1080" y="1378" type="line"/>
      <point x="-380" y="1378" type="line"/>
      <point x="-360" y="1323"/>
      <point x="-279" y="1272"/>
      <point x="-210" y="1272" type="qcurve" smooth="yes"/>
      <point x="-119" y="1272"/>
      <point x="-31" y="1358"/>
      <point x="-26" y="1460" type="qcurve"/>
      <point x="20" y="1460" type="line"/>
      <point x="16" y="1339"/>
      <point x="-101" y="1224"/>
    </contour>
  </outline>
</glyph>
<glyph name="aocomb" format="2">
  <unicode hex="1DD5"/>
  <outline>
    <contour>
      <point x="-548" y="1464" type="line"/>
      <point x="-548" y="1556" type="line" smooth="yes"/>
      <point x="-548" y="1639"/>
      <point x="-614" y="1710"/>
      <point x="-682" y="1710" type="qcurve" smooth="yes"/>
      <point x="-755" y="1710"/>
      <point x="-836" y="1645"/>
      <point x="-838" y="1588" type="qcurve"/>
      <point x="-882" y="1607" type="line"/>
      <point x="-877" y="1669"/>
      <point x="-826" y="1712" type="qcurve" smooth="yes"/>
      <point x="-770" y="1758"/>
      <point x="-682" y="1758" type="qcurve" smooth="yes"/>
      <point x="-602" y="1758"/>
      <point x="-502" y="1669"/>
      <point x="-502" y="1568" type="qcurve" smooth="yes"/>
      <point x="-502" y="1466" type="line"/>
    </contour>
    <contour>
      <point x="-540" y="1510" type="line"/>
      <point x="-540" y="1464" type="line"/>
      <point x="-716" y="1464" type="line"/>
      <point x="-784" y="1463"/>
      <point x="-860" y="1408"/>
      <point x="-860" y="1348" type="qcurve" smooth="yes"/>
      <point x="-860" y="1302"/>
      <point x="-795" y="1242"/>
      <point x="-734" y="1242" type="qcurve" smooth="yes"/>
      <point x="-666" y="1242"/>
      <point x="-557" y="1308"/>
      <point x="-526" y="1352" type="qcurve"/>
      <point x="-512" y="1322" type="line"/>
      <point x="-555" y="1262"/>
      <point x="-672" y="1196"/>
      <point x="-738" y="1196" type="qcurve" smooth="yes"/>
      <point x="-816" y="1196"/>
      <point x="-906" y="1283"/>
      <point x="-906" y="1350" type="qcurve" smooth="yes"/>
      <point x="-906" y="1430"/>
      <point x="-804" y="1510"/>
      <point x="-716" y="1510" type="qcurve" smooth="yes"/>
    </contour>
    <contour>
      <point x="-306" y="1186" type="qcurve"/>
      <point x="-400" y="1187"/>
      <point x="-548" y="1334"/>
      <point x="-548" y="1466" type="qcurve" smooth="yes"/>
      <point x="-548" y="1478" type="line" smooth="yes"/>
      <point x="-548" y="1568"/>
      <point x="-479" y="1694"/>
      <point x="-368" y="1760"/>
      <point x="-306" y="1760" type="qcurve" smooth="yes"/>
      <point x="-214" y="1760"/>
      <point x="-74" y="1615"/>
      <point x="-74" y="1478" type="qcurve" smooth="yes"/>
      <point x="-74" y="1466" type="line" smooth="yes"/>
      <point x="-74" y="1334"/>
      <point x="-213" y="1187"/>
    </contour>
    <contour>
      <point x="-306" y="1234" type="qcurve"/>
      <point x="-223" y="1233"/>
      <point x="-120" y="1361"/>
      <point x="-120" y="1464" type="qcurve" smooth="yes"/>
      <point x="-120" y="1480" type="line"/>
      <point x="-121" y="1587"/>
      <point x="-223" y="1714"/>
      <point x="-304" y="1714" type="qcurve" smooth="yes"/>
      <point x="-391" y="1714"/>
      <point x="-502" y="1580"/>
      <point x="-502" y="1480" type="qcurve" smooth="yes"/>
      <point x="-502" y="1464" type="line" smooth="yes"/>
      <point x="-502" y="1367"/>
      <point x="-391" y="1233"/>
    </contour>
  </outline>
</glyph>
<glyph name="ccedillacomb" format="2">
  <unicode hex="1DD7"/>
  <outline>
    <contour>
      <point x="-536" y="1202" type="line"/>
      <point x="-488" y="1202" type="line"/>
      <point x="-498" y="1160" type="line"/>
      <point x="-461" y="1153"/>
      <point x="-426" y="1120"/>
      <point x="-426" y="1094" type="qcurve" smooth="yes"/>
      <point x="-426" y="1051"/>
      <point x="-502" y="1000"/>
      <point x="-568" y="1000" type="qcurve"/>
      <point x="-572" y="1042" type="line"/>
      <point x="-518" y="1045"/>
      <point x="-472" y="1066"/>
      <point x="-472" y="1090" type="qcurve" smooth="yes"/>
      <point x="-472" y="1106"/>
      <point x="-503" y="1123"/>
      <point x="-556" y="1128" type="qcurve"/>
    </contour>
    <contour>
      <point x="-494" y="1186" type="qcurve"/>
      <point x="-563" y="1187"/>
      <point x="-663" y="1252"/>
      <point x="-718" y="1371"/>
      <point x="-718" y="1452" type="qcurve" smooth="yes"/>
      <point x="-718" y="1474" type="line"/>
      <point x="-719" y="1605"/>
      <point x="-591" y="1760"/>
      <point x="-482" y="1760" type="qcurve" smooth="yes"/>
      <point x="-396" y="1760"/>
      <point x="-287" y="1662"/>
      <point x="-280" y="1576" type="qcurve"/>
      <point x="-324" y="1576" type="line"/>
      <point x="-330" y="1638"/>
      <point x="-420" y="1714"/>
      <point x="-488" y="1714" type="qcurve" smooth="yes"/>
      <point x="-545" y="1714"/>
      <point x="-627" y="1656"/>
      <point x="-672" y="1549"/>
      <point x="-672" y="1474" type="qcurve" smooth="yes"/>
      <point x="-672" y="1452" type="line" smooth="yes"/>
      <point x="-672" y="1382"/>
      <point x="-630" y="1284"/>
      <point x="-549" y="1234"/>
      <point x="-492" y="1234" type="qcurve" smooth="yes"/>
      <point x="-426" y="1234"/>
      <point x="-340" y="1298"/>
      <point x="-330" y="1356" type="qcurve"/>
      <point x="-286" y="1356" type="line"/>
      <point x="-302" y="1277"/>
      <point x="-412" y="1187"/>
    </contour>
  </outline>
</glyph>
<glyph name="Rcomb" format="2">
  <unicode hex="1DE2"/>
  <outline>
    <contour>
      <point x="-480" y="1466" type="qcurve"/>
      <point x="-716" y="1466" type="line"/>
      <point x="-716" y="1512" type="line"/>
      <point x="-520" y="1512" type="line"/>
      <point x="-458" y="1513"/>
      <point x="-386" y="1585"/>
      <point x="-386" y="1640" type="qcurve" smooth="yes"/>
      <point x="-386" y="1705"/>
      <point x="-438" y="1752"/>
      <point x="-504" y="1752" type="qcurve" smooth="yes"/>
      <point x="-704" y="1752" type="line"/>
      <point x="-704" y="1202" type="line"/>
      <point x="-750" y="1202" type="line"/>
      <point x="-750" y="1798" type="line"/>
      <point x="-504" y="1798" type="line" smooth="yes"/>
      <point x="-419" y="1798"/>
      <point x="-338" y="1724"/>
      <point x="-338" y="1640" type="qcurve" smooth="yes"/>
      <point x="-338" y="1582"/>
      <point x="-416" y="1502"/>
      <point x="-462" y="1492" type="qcurve"/>
      <point x="-469" y="1491"/>
      <point x="-453" y="1480"/>
      <point x="-437" y="1470"/>
      <point x="-446" y="1470" type="qcurve"/>
      <point x="-451" y="1469"/>
      <point x="-469" y="1466"/>
      <point x="-482" y="1465"/>
    </contour>
    <contour>
      <point x="-524" y="1466" type="qcurve"/>
      <point x="-524" y="1498" type="line"/>
      <point x="-457" y="1505"/>
      <point x="-376" y="1479"/>
      <point x="-340" y="1407"/>
      <point x="-340" y="1344" type="qcurve" smooth="yes"/>
      <point x="-340" y="1310" type="line" smooth="yes"/>
      <point x="-340" y="1285"/>
      <point x="-336" y="1249"/>
      <point x="-326" y="1224"/>
      <point x="-318" y="1214" type="qcurve"/>
      <point x="-318" y="1202" type="line"/>
      <point x="-358" y="1202" type="line"/>
      <point x="-372" y="1214"/>
      <point x="-386" y="1264"/>
      <point x="-386" y="1310" type="qcurve" smooth="yes"/>
      <point x="-386" y="1344" type="line"/>
      <point x="-387" y="1418"/>
      <point x="-442" y="1465"/>
    </contour>
  </outline>
</glyph>
<glyph name="betalatincomb" format="2">
  <unicode hex="1DE9"/>
  <outline>
    <contour>
      <point x="-556" y="1638" type="line"/>
      <point x="-538" y="1638" type="line" smooth="yes"/>
      <point x="-417" y="1638"/>
      <point x="-283" y="1530"/>
      <point x="-282" y="1428" type="qcurve"/>
      <point x="-282" y="1322"/>
      <point x="-413" y="1192"/>
      <point x="-520" y="1192" type="qcurve" smooth="yes"/>
      <point x="-569" y="1192"/>
      <point x="-653" y="1220"/>
      <point x="-715" y="1274"/>
      <point x="-734" y="1312" type="qcurve"/>
      <point x="-722" y="1350" type="line"/>
      <point x="-690" y="1298"/>
      <point x="-587" y="1240"/>
      <point x="-520" y="1240" type="qcurve" smooth="yes"/>
      <point x="-435" y="1240"/>
      <point x="-329" y="1337"/>
      <point x="-328" y="1422" type="qcurve"/>
      <point x="-328" y="1506"/>
      <point x="-432" y="1592"/>
      <point x="-530" y="1592" type="qcurve" smooth="yes"/>
      <point x="-556" y="1592" type="line"/>
    </contour>
    <contour>
      <point x="-532" y="1954" type="qcurve"/>
      <point x="-446" y="1955"/>
      <point x="-332" y="1860"/>
      <point x="-332" y="1778" type="qcurve" smooth="yes"/>
      <point x="-332" y="1696"/>
      <point x="-442" y="1592"/>
      <point x="-552" y="1592" type="qcurve" smooth="yes"/>
      <point x="-584" y="1592" type="line"/>
      <point x="-584" y="1638" type="line"/>
      <point x="-530" y="1638" type="line" smooth="yes"/>
      <point x="-456" y="1638"/>
      <point x="-378" y="1718"/>
      <point x="-378" y="1776" type="qcurve" smooth="yes"/>
      <point x="-378" y="1838"/>
      <point x="-464" y="1908"/>
      <point x="-534" y="1908" type="qcurve" smooth="yes"/>
      <point x="-619" y="1908"/>
      <point x="-716" y="1808"/>
      <point x="-716" y="1722" type="qcurve" smooth="yes"/>
      <point x="-716" y="1022" type="line"/>
      <point x="-762" y="1022" type="line"/>
      <point x="-762" y="1720" type="line" smooth="yes"/>
      <point x="-762" y="1795"/>
      <point x="-702" y="1900"/>
      <point x="-598" y="1955"/>
    </contour>
  </outline>
</glyph>
<glyph name="dieresisgrave" format="2">
  <advance width="1028"/>
  <unicode hex="1FED"/>
  <anchor x="396" y="1434" name="t.uni030F_1"/>
  <outline>
    <contour>
      <point x="364" y="1319" type="line"/>
      <point x="364" y="1434" type="line"/>
      <point x="428" y="1434" type="line"/>
      <point x="428" y="1319" type="line"/>
    </contour>
    <contour>
      <point x="768" y="1319" type="line"/>
      <point x="768" y="1434" type="line"/>
      <point x="832" y="1434" type="line"/>
      <point x="832" y="1319" type="line"/>
    </contour>
    <contour>
      <point x="627" y="1420" type="line"/>
      <point x="591" y="1420" type="line"/>
      <point x="540" y="1694" type="line"/>
      <point x="589" y="1694" type="line"/>
    </contour>
  </outline>
</glyph>
<glyph name="grave-gr" format="2">
  <advance width="326"/>
  <unicode hex="1FEF"/>
  <outline>
    <contour>
      <point x="206" y="1283" type="line"/>
      <point x="170" y="1283" type="line"/>
      <point x="119" y="1557" type="line"/>
      <point x="168" y="1557" type="line"/>
    </contour>
  </outline>
</glyph>
<glyph name="plus.superior" format="2">
  <advance width="866"/>
  <unicode hex="207A"/>
  <outline>
    <contour>
      <point x="414" y="840" type="line"/>
      <point x="414" y="1382" type="line"/>
      <point x="456" y="1382" type="line"/>
      <point x="456" y="840" type="line"/>
    </contour>
    <contour>
      <point x="148" y="1090" type="line"/>
      <point x="148" y="1134" type="line"/>
      <point x="718" y="1134" type="line"/>
      <point x="718" y="1090" type="line"/>
    </contour>
  </outline>
</glyph>
<glyph name="servicemark" format="2">
  <advance width="1192"/>
  <unicode hex="2120"/>
  <outline>
    <contour>
      <point x="278" y="952" type="qcurve"/>
      <point x="187" y="951"/>
      <point x="82" y="1041"/>
      <point x="82" y="1118" type="qcurve"/>
      <point x="128" y="1118" type="line"/>
      <point x="128" y="1060"/>
      <point x="207" y="998"/>
      <point x="278" y="998" type="qcurve" smooth="yes"/>
      <point x="348" y="998"/>
      <point x="432" y="1055"/>
      <point x="432" y="1100" type="qcurve" smooth="yes"/>
      <point x="432" y="1136"/>
      <point x="368" y="1188"/>
      <point x="310" y="1198" type="qcurve" smooth="yes"/>
      <point x="244" y="1210" type="line" smooth="yes"/>
      <point x="179" y="1221"/>
      <point x="96" y="1299"/>
      <point x="96" y="1352" type="qcurve" smooth="yes"/>
      <point x="96" y="1413"/>
      <point x="200" y="1492"/>
      <point x="284" y="1492" type="qcurve" smooth="yes"/>
      <point x="368" y="1492"/>
      <point x="470" y="1410"/>
      <point x="470" y="1340" type="qcurve"/>
      <point x="424" y="1340" type="line"/>
      <point x="423" y="1390"/>
      <point x="350" y="1446"/>
      <point x="284" y="1446" type="qcurve" smooth="yes"/>
      <point x="220" y="1446"/>
      <point x="142" y="1393"/>
      <point x="142" y="1352" type="qcurve"/>
      <point x="144" y="1318"/>
      <point x="203" y="1265"/>
      <point x="254" y="1256" type="qcurve" smooth="yes"/>
      <point x="318" y="1246" type="line"/>
      <point x="392" y="1233"/>
      <point x="478" y="1155"/>
      <point x="478" y="1100" type="qcurve" smooth="yes"/>
      <point x="478" y="1034"/>
      <point x="367" y="951"/>
    </contour>
    <contour>
      <point x="588" y="954" type="line"/>
      <point x="588" y="1490" type="line"/>
      <point x="634" y="1490" type="line"/>
      <point x="634" y="954" type="line"/>
    </contour>
    <contour>
      <point x="818" y="954" type="line"/>
      <point x="594" y="1490" type="line"/>
      <point x="646" y="1490" type="line"/>
      <point x="844" y="1016" type="line"/>
      <point x="1042" y="1490" type="line"/>
      <point x="1092" y="1490" type="line"/>
      <point x="868" y="954" type="line"/>
    </contour>
    <contour>
      <point x="1054" y="954" type="line"/>
      <point x="1054" y="1490" type="line"/>
      <point x="1100" y="1490" type="line"/>
      <point x="1100" y="954" type="line"/>
    </contour>
  </outline>
</glyph>
<glyph name="reversedonehundred.roman" format="2">
  <advance width="1050"/>
  <unicode hex="2183"/>
  <outline>
    <contour>
      <point x="14" y="442" type="qcurve"/>
      <point x="64" y="442" type="line"/>
      <point x="77" y="255"/>
      <point x="292" y="26"/>
      <point x="494" y="26" type="qcurve" smooth="yes"/>
      <point x="647" y="26"/>
      <point x="869" y="173"/>
      <point x="990" y="471"/>
      <point x="990" y="698" type="qcurve" smooth="yes"/>
      <point x="990" y="792" type="line" smooth="yes"/>
      <point x="990" y="1019"/>
      <point x="868" y="1317"/>
      <point x="644" y="1464"/>
      <point x="488" y="1464" type="qcurve" smooth="yes"/>
      <point x="286" y="1464"/>
      <point x="77" y="1234"/>
      <point x="64" y="1048" type="qcurve"/>
      <point x="14" y="1048" type="line"/>
      <point x="24" y="1184"/>
      <point x="137" y="1392"/>
      <point x="343" y="1510"/>
      <point x="492" y="1510" type="qcurve" smooth="yes"/>
      <point x="659" y="1510"/>
      <point x="903" y="1351"/>
      <point x="1036" y="1032"/>
      <point x="1036" y="792" type="qcurve" smooth="yes"/>
      <point x="1036" y="696" type="line" smooth="yes"/>
      <point x="1036" y="458"/>
      <point x="904" y="140"/>
      <point x="661" y="-20"/>
      <point x="494" y="-20" type="qcurve" smooth="yes"/>
      <point x="345" y="-20"/>
      <point x="138" y="98"/>
      <point x="24" y="306"/>
    </contour>
  </outline>
</glyph>
<glyph name="iotifiedecomb-cy" format="2">
  <unicode hex="A69F"/>
  <outline>
    <contour>
      <point x="-518" y="1510" type="line"/>
      <point x="-518" y="1464" type="line"/>
      <point x="-672" y="1464" type="line"/>
      <point x="-672" y="1510" type="line"/>
    </contour>
    <contour>
      <point x="-652" y="1754" type="line"/>
      <point x="-652" y="1202" type="line"/>
      <point x="-698" y="1202" type="line"/>
      <point x="-698" y="1754" type="line"/>
    </contour>
    <contour>
      <point x="-292" y="1184" type="qcurve" smooth="yes"/>
      <point x="-397" y="1184"/>
      <point x="-536" y="1338"/>
      <point x="-536" y="1458" type="qcurve" smooth="yes"/>
      <point x="-536" y="1484" type="line"/>
      <point x="-535" y="1563"/>
      <point x="-471" y="1687"/>
      <point x="-360" y="1758"/>
      <point x="-290" y="1758" type="qcurve" smooth="yes"/>
      <point x="-233" y="1758"/>
      <point x="-146" y="1714"/>
      <point x="-96" y="1637"/>
      <point x="-96" y="1588" type="qcurve"/>
      <point x="-142" y="1588" type="line"/>
      <point x="-143" y="1642"/>
      <point x="-224" y="1710"/>
      <point x="-290" y="1710" type="qcurve" smooth="yes"/>
      <point x="-348" y="1710"/>
      <point x="-438" y="1654"/>
      <point x="-488" y="1552"/>
      <point x="-488" y="1484" type="qcurve" smooth="yes"/>
      <point x="-488" y="1454" type="line"/>
      <point x="-489" y="1356"/>
      <point x="-378" y="1230"/>
      <point x="-292" y="1230" type="qcurve" smooth="yes"/>
      <point x="-229" y="1230"/>
      <point x="-148" y="1302"/>
      <point x="-140" y="1368" type="qcurve"/>
      <point x="-94" y="1368" type="line"/>
      <point x="-100" y="1283"/>
      <point x="-212" y="1184"/>
    </contour>
    <contour>
      <point x="-506" y="1464" type="line"/>
      <point x="-506" y="1510" type="line"/>
      <point x="-206" y="1510" type="line"/>
      <point x="-206" y="1464" type="line"/>
    </contour>
  </outline>
</glyph>
<glyph name="one.tf.ss01" format="2">
  <advance width="1328"/>
  <unicode hex="E072"/>
  <unicode hex="E07C"/>
  <outline>
    <contour>
      <point x="650" y="0" type="line"/>
      <point x="650" y="1361" type="line"/>
      <point x="653" y="1359" type="line"/>
      <point x="600" y="1277"/>
      <point x="504" y="1229"/>
      <point x="353" y="1208" type="curve" smooth="yes"/>
      <point x="305" y="1201"/>
      <point x="262" y="1198"/>
      <point x="222" y="1198" type="curve"/>
      <point x="222" y="1244" type="line"/>
      <point x="257" y="1244"/>
      <point x="291" y="1249"/>
      <point x="345" y="1256" type="curve" smooth="yes"/>
      <point x="525" y="1279"/>
      <point x="630" y="1356"/>
      <point x="656" y="1490" type="curve"/>
      <point x="696" y="1490" type="line"/>
      <point x="696" y="0" type="line"/>
    </contour>
    <contour>
      <point x="250" y="0" type="line"/>
      <point x="250" y="46" type="line"/>
      <point x="1067" y="46" type="line"/>
      <point x="1067" y="0" type="line"/>
    </contour>
  </outline>
</glyph>
<glyph name="i.numr" format="2">
  <advance width="306"/>
  <unicode hex="E0A5"/>
  <outline>
    <contour>
      <point x="130" y="744" type="line"/>
      <point x="130" y="1536" type="line"/>
      <point x="174" y="1536" type="line"/>
      <point x="174" y="744" type="line"/>
    </contour>
    <contour>
      <point x="154" y="1672" type="qcurve"/>
      <point x="137" y="1673"/>
      <point x="114" y="1695"/>
      <point x="114" y="1710" type="qcurve" smooth="yes"/>
      <point x="114" y="1726"/>
      <point x="137" y="1748"/>
      <point x="154" y="1748" type="qcurve" smooth="yes"/>
      <point x="170" y="1748"/>
      <point x="192" y="1726"/>
      <point x="192" y="1710" type="qcurve" smooth="yes"/>
      <point x="192" y="1695"/>
      <point x="170" y="1673"/>
    </contour>
  </outline>
</glyph>
<glyph name="zero.dnom" format="2">
  <advance width="713"/>
  <unicode hex="E0B4"/>
  <anchor x="384" y="782" name="m.uni030F_1"/>
  <outline>
    <contour>
      <point x="357" y="-10" type="qcurve" smooth="yes"/>
      <point x="234" y="-10"/>
      <point x="100" y="196"/>
      <point x="100" y="383" type="qcurve" smooth="yes"/>
      <point x="100" y="570"/>
      <point x="234" y="778"/>
      <point x="357" y="778" type="qcurve" smooth="yes"/>
      <point x="479" y="778"/>
      <point x="613" y="571"/>
      <point x="613" y="383" type="qcurve" smooth="yes"/>
      <point x="613" y="196"/>
      <point x="479" y="-10"/>
    </contour>
    <contour>
      <point x="357" y="37" type="qcurve" smooth="yes"/>
      <point x="455" y="37"/>
      <point x="562" y="219"/>
      <point x="562" y="383" type="qcurve" smooth="yes"/>
      <point x="562" y="549"/>
      <point x="455" y="731"/>
      <point x="357" y="731" type="qcurve" smooth="yes"/>
      <point x="259" y="731"/>
      <point x="151" y="549"/>
      <point x="151" y="383" type="qcurve" smooth="yes"/>
      <point x="151" y="218"/>
      <point x="259" y="37"/>
    </contour>
  </outline>
</glyph>
<glyph name="six.dnom" format="2">
  <advance width="678"/>
  <unicode hex="E0BA"/>
  <outline>
    <contour>
      <point x="339" y="-10" type="qcurve" smooth="yes"/>
      <point x="272" y="-10"/>
      <point x="164" y="55"/>
      <point x="100" y="166"/>
      <point x="100" y="234" type="qcurve" smooth="yes"/>
      <point x="100" y="278"/>
      <point x="126" y="365"/>
      <point x="163" y="414" type="qcurve" smooth="yes"/>
      <point x="425" y="767" type="line"/>
      <point x="483" y="767" type="line"/>
      <point x="228" y="415" type="line"/>
      <point x="221" y="415" type="line"/>
      <point x="232" y="435"/>
      <point x="299" y="466"/>
      <point x="343" y="466" type="qcurve" smooth="yes"/>
      <point x="444" y="466"/>
      <point x="578" y="332"/>
      <point x="578" y="230" type="qcurve" smooth="yes"/>
      <point x="578" y="130"/>
      <point x="440" y="-10"/>
    </contour>
    <contour>
      <point x="339" y="36" type="qcurve" smooth="yes"/>
      <point x="418" y="36"/>
      <point x="527" y="149"/>
      <point x="527" y="230" type="qcurve" smooth="yes"/>
      <point x="527" y="313"/>
      <point x="419" y="424"/>
      <point x="339" y="424" type="qcurve" smooth="yes"/>
      <point x="259" y="424"/>
      <point x="150" y="313"/>
      <point x="150" y="231" type="qcurve" smooth="yes"/>
      <point x="150" y="149"/>
      <point x="260" y="36"/>
    </contour>
  </outline>
</glyph>
<glyph name="nine.dnom" format="2">
  <advance width="678"/>
  <unicode hex="E0BD"/>
  <outline>
    <contour>
      <point x="339" y="778" type="qcurve" smooth="yes"/>
      <point x="406" y="778"/>
      <point x="514" y="713"/>
      <point x="578" y="603"/>
      <point x="578" y="534" type="qcurve" smooth="yes"/>
      <point x="578" y="490"/>
      <point x="552" y="403"/>
      <point x="515" y="353" type="qcurve" smooth="yes"/>
      <point x="253" y="0" type="line"/>
      <point x="195" y="0" type="line"/>
      <point x="450" y="353" type="line"/>
      <point x="457" y="353" type="line"/>
      <point x="447" y="334"/>
      <point x="380" y="301"/>
      <point x="335" y="301" type="qcurve" smooth="yes"/>
      <point x="268" y="301"/>
      <point x="161" y="362"/>
      <point x="100" y="469"/>
      <point x="100" y="537" type="qcurve" smooth="yes"/>
      <point x="100" y="638"/>
      <point x="239" y="778"/>
    </contour>
    <contour>
      <point x="339" y="731" type="qcurve" smooth="yes"/>
      <point x="260" y="731"/>
      <point x="150" y="619"/>
      <point x="150" y="537" type="qcurve" smooth="yes"/>
      <point x="150" y="455"/>
      <point x="260" y="343"/>
      <point x="339" y="343" type="qcurve" smooth="yes"/>
      <point x="419" y="343"/>
      <point x="528" y="454"/>
      <point x="528" y="536" type="qcurve" smooth="yes"/>
      <point x="528" y="619"/>
      <point x="419" y="731"/>
    </contour>
  </outline>
</glyph>
<glyph name="minus.numr" format="2">
  <advance width="786"/>
  <unicode hex="E0D8"/>
  <outline>
    <contour>
      <point x="652" y="1152" type="line"/>
      <point x="652" y="1108" type="line"/>
      <point x="134" y="1108" type="line"/>
      <point x="134" y="1152" type="line"/>
    </contour>
  </outline>
</glyph>
<glyph name="equal.numr" format="2">
  <advance width="782"/>
  <unicode hex="E0D9"/>
  <outline>
    <contour>
      <point x="174" y="1216" type="line"/>
      <point x="174" y="1256" type="line"/>
      <point x="608" y="1256" type="line"/>
      <point x="608" y="1216" type="line"/>
    </contour>
    <contour>
      <point x="174" y="1000" type="line"/>
      <point x="174" y="1044" type="line"/>
      <point x="608" y="1044" type="line"/>
      <point x="608" y="1000" type="line"/>
    </contour>
  </outline>
</glyph>
<glyph name="parenright.numr" format="2">
  <advance width="398"/>
  <unicode hex="E0DB"/>
  <outline>
    <contour>
      <point x="258" y="1154" type="qcurve"/>
      <point x="259" y="1020"/>
      <point x="187" y="774"/>
      <point x="122" y="660" type="qcurve"/>
      <point x="78" y="660" type="line"/>
      <point x="122" y="732"/>
      <point x="182" y="897"/>
      <point x="212" y="1070"/>
      <point x="212" y="1154" type="qcurve" smooth="yes"/>
      <point x="212" y="1241"/>
      <point x="180" y="1415"/>
      <point x="121" y="1579"/>
      <point x="78" y="1650" type="qcurve"/>
      <point x="122" y="1650" type="line"/>
      <point x="187" y="1536"/>
      <point x="259" y="1285"/>
    </contour>
  </outline>
</glyph>
<glyph name="dotmacron.lc" format="2">
  <advance width="372"/>
  <unicode hex="E10C"/>
  <outline>
    <contour>
      <point x="419" y="1704" type="line"/>
      <point x="419" y="1658" type="line"/>
      <point x="-47" y="1658" type="line"/>
      <point x="-47" y="1704" type="line"/>
    </contour>
    <contour>
      <point x="154" y="1319" type="line"/>
      <point x="154" y="1434" type="line"/>
      <point x="218" y="1434" type="line"/>
      <point x="218" y="1319" type="line"/>
    </contour>
  </outline>
</glyph>
<glyph name="Elcyr.loclBGR" format="2">
  <advance width="1310"/>
  <outline>
    <contour>
      <point x="1146" y="0" type="line"/>
      <point x="626" y="1454" type="line"/>
      <point x="610" y="1490" type="line"/>
      <point x="664" y="1490" type="line"/>
      <point x="1196" y="0" type="line"/>
    </contour>
    <contour>
      <point x="636" y="1456" type="line"/>
      <point x="116" y="0" type="line"/>
      <point x="66" y="0" type="line"/>
      <point x="600" y="1490" type="line"/>
      <point x="648" y="1490" type="line"/>
    </contour>
  </outline>
</glyph>
<glyph name="_part.crossbar_vert" format="2">
  <advance width="302"/>
  <outline>
    <contour>
      <point x="128" y="467" type="line"/>
      <point x="128" y="1021" type="line"/>
      <point x="174" y="1021" type="line"/>
      <point x="174" y="467" type="line"/>
    </contour>
  </outline>
</glyph>
<glyph name="braceleft.tf" format="2">
  <advance width="800"/>
  <outline>
    <contour>
      <point x="162" y="629" type="qcurve"/>
      <point x="162" y="675" type="line"/>
      <point x="288" y="675"/>
      <point x="378" y="765"/>
      <point x="378" y="889" type="qcurve" smooth="yes"/>
      <point x="378" y="1271" type="line" smooth="yes"/>
      <point x="378" y="1350"/>
      <point x="410" y="1467"/>
      <point x="475" y="1544"/>
      <point x="575" y="1582"/>
      <point x="642" y="1582" type="qcurve"/>
      <point x="642" y="1536" type="line"/>
      <point x="528" y="1536"/>
      <point x="424" y="1411"/>
      <point x="424" y="1271" type="qcurve" smooth="yes"/>
      <point x="424" y="889" type="line" smooth="yes"/>
      <point x="424" y="817"/>
      <point x="396" y="718"/>
      <point x="335" y="657"/>
      <point x="235" y="629"/>
    </contour>
    <contour>
      <point x="642" y="-280" type="line"/>
      <point x="575" y="-280"/>
      <point x="475" y="-242"/>
      <point x="410" y="-165"/>
      <point x="378" y="-48"/>
      <point x="378" y="31" type="qcurve" smooth="yes"/>
      <point x="378" y="413" type="line" smooth="yes"/>
      <point x="378" y="538"/>
      <point x="288" y="629"/>
      <point x="162" y="629" type="qcurve"/>
      <point x="162" y="675" type="line"/>
      <point x="235" y="675"/>
      <point x="335" y="647"/>
      <point x="396" y="585"/>
      <point x="424" y="485"/>
      <point x="424" y="413" type="qcurve" smooth="yes"/>
      <point x="424" y="31" type="line" smooth="yes"/>
      <point x="424" y="-108"/>
      <point x="528" y="-234"/>
      <point x="642" y="-234" type="qcurve"/>
    </contour>
    <contour>
      <point x="162" y="629" type="line"/>
      <point x="162" y="675" type="line"/>
      <point x="318" y="675" type="line"/>
      <point x="318" y="629" type="line"/>
    </contour>
  </outline>
</glyph>
<glyph name="questiondown.case" format="2">
  <advance width="980"/>
  <outline>
    <contour>
      <point x="508" y="1048" type="line"/>
      <point x="508" y="946" type="line" smooth="yes"/>
      <point x="508" y="828"/>
      <point x="470" y="767"/>
      <point x="332" y="666" type="curve" smooth="yes"/>
      <point x="173" y="553"/>
      <point x="116" y="467"/>
      <point x="116" y="344" type="curve" smooth="yes"/>
      <point x="116" y="134"/>
      <point x="281" y="-20"/>
      <point x="494" y="-20" type="curve" smooth="yes"/>
      <point x="717" y="-20"/>
      <point x="884" y="149"/>
      <point x="884" y="372" type="curve"/>
      <point x="838" y="372" type="line"/>
      <point x="838" y="175"/>
      <point x="692" y="26"/>
      <point x="494" y="26" type="curve" smooth="yes"/>
      <point x="307" y="26"/>
      <point x="162" y="159"/>
      <point x="162" y="344" type="curve" smooth="yes"/>
      <point x="162" y="449"/>
      <point x="210" y="525"/>
      <point x="358" y="628" type="curve" smooth="yes"/>
      <point x="507" y="734"/>
      <point x="556" y="812"/>
      <point x="556" y="946" type="curve" smooth="yes"/>
      <point x="556" y="1048" type="line"/>
    </contour>
    <contour>
      <point x="487" y="1490" type="line"/>
      <point x="487" y="1400" type="line"/>
      <point x="577" y="1400" type="line"/>
      <point x="577" y="1490" type="line"/>
    </contour>
  </outline>
</glyph>
<glyph name="rinv.sc" format="2">
  <advance width="1070"/>
  <outline>
    <contour>
      <point x="198" y="0" type="line"/>
      <point x="198" y="1118" type="line"/>
      <point x="244" y="1118" type="line"/>
      <point x="244" y="44" type="line"/>
      <point x="573" y="44" type="line" smooth="yes"/>
      <point x="716" y="44"/>
      <point x="894" y="197"/>
      <point x="894" y="323" type="qcurve" smooth="yes"/>
      <point x="894" y="447"/>
      <point x="716" y="597"/>
      <point x="573" y="597" type="qcurve" smooth="yes"/>
      <point x="222" y="597" type="line"/>
      <point x="222" y="641" type="line"/>
      <point x="574" y="641" type="line" smooth="yes"/>
      <point x="736" y="641"/>
      <point x="940" y="466"/>
      <point x="940" y="323" type="qcurve" smooth="yes"/>
      <point x="940" y="178"/>
      <point x="736" y="0"/>
      <point x="574" y="0" type="qcurve" smooth="yes"/>
    </contour>
    <contour>
      <point x="636" y="610" type="line"/>
      <point x="946" y="1118" type="line"/>
      <point x="999" y="1118" type="line"/>
      <point x="688" y="610" type="line"/>
    </contour>
  </outline>
</glyph>
<glyph name="shacyr.loclBGR" format="2">
  <advance width="1774"/>
  <outline>
    <contour>
      <point x="1576" y="1118" type="line"/>
      <point x="1576" y="0" type="line"/>
      <point x="1530" y="0" type="line"/>
      <point x="1530" y="264" type="line"/>
      <point x="1546" y="264" type="line"/>
      <point x="1523" y="165"/>
      <point x="1415" y="42"/>
      <point x="1272" y="-16"/>
      <point x="1198" y="-16" type="qcurve" smooth="yes"/>
      <point x="1074" y="-16"/>
      <point x="899" y="140"/>
      <point x="877" y="280" type="qcurve"/>
      <point x="895" y="280" type="line"/>
      <point x="876" y="186"/>
      <point x="774" y="54"/>
      <point x="626" y="-16"/>
      <point x="538" y="-16" type="qcurve" smooth="yes"/>
      <point x="433" y="-16"/>
      <point x="281" y="77"/>
      <point x="198" y="249"/>
      <point x="198" y="368" type="qcurve" smooth="yes"/>
      <point x="198" y="1118" type="line"/>
      <point x="244" y="1118" type="line"/>
      <point x="244" y="368" type="line" smooth="yes"/>
      <point x="244" y="206"/>
      <point x="403" y="30"/>
      <point x="538" y="30" type="qcurve" smooth="yes"/>
      <point x="628" y="30"/>
      <point x="776" y="109"/>
      <point x="864" y="260"/>
      <point x="864" y="368" type="qcurve" smooth="yes"/>
      <point x="864" y="1118" type="line"/>
      <point x="910" y="1118" type="line"/>
      <point x="910" y="368" type="line" smooth="yes"/>
      <point x="910" y="206"/>
      <point x="1067" y="30"/>
      <point x="1198" y="30" type="qcurve" smooth="yes"/>
      <point x="1292" y="30"/>
      <point x="1442" y="117"/>
      <point x="1530" y="269"/>
      <point x="1530" y="368" type="qcurve" smooth="yes"/>
      <point x="1530" y="1118" type="line"/>
    </contour>
  </outline>
</glyph>
<glyph name="shchacyr.loclBGR" format="2">
  <advance width="1794"/>
  <outline>
    <contour>
      <point x="1576" y="1118" type="line"/>
      <point x="1576" y="0" type="line"/>
      <point x="1530" y="0" type="line"/>
      <point x="1530" y="264" type="line"/>
      <point x="1546" y="264" type="line"/>
      <point x="1523" y="165"/>
      <point x="1415" y="42"/>
      <point x="1272" y="-16"/>
      <point x="1198" y="-16" type="qcurve" smooth="yes"/>
      <point x="1074" y="-16"/>
      <point x="899" y="140"/>
      <point x="877" y="280" type="qcurve"/>
      <point x="895" y="280" type="line"/>
      <point x="876" y="186"/>
      <point x="774" y="54"/>
      <point x="626" y="-16"/>
      <point x="538" y="-16" type="qcurve" smooth="yes"/>
      <point x="433" y="-16"/>
      <point x="281" y="77"/>
      <point x="198" y="249"/>
      <point x="198" y="368" type="qcurve" smooth="yes"/>
      <point x="198" y="1118" type="line"/>
      <point x="244" y="1118" type="line"/>
      <point x="244" y="368" type="line" smooth="yes"/>
      <point x="244" y="206"/>
      <point x="403" y="30"/>
      <point x="538" y="30" type="qcurve" smooth="yes"/>
      <point x="628" y="30"/>
      <point x="776" y="109"/>
      <point x="864" y="260"/>
      <point x="864" y="368" type="qcurve" smooth="yes"/>
      <point x="864" y="1118" type="line"/>
      <point x="910" y="1118" type="line"/>
      <point x="910" y="368" type="line" smooth="yes"/>
      <point x="910" y="206"/>
      <point x="1067" y="30"/>
      <point x="1198" y="30" type="qcurve" smooth="yes"/>
      <point x="1292" y="30"/>
      <point x="1442" y="117"/>
      <point x="1530" y="269"/>
      <point x="1530" y="368" type="qcurve" smooth="yes"/>
      <point x="1530" y="1118" type="line"/>
    </contour>
    <contour>
      <point x="1658" y="-320" type="line"/>
      <point x="1658" y="0" type="line"/>
      <point x="1550" y="0" type="line"/>
      <point x="1550" y="46" type="line"/>
      <point x="1704" y="46" type="line"/>
      <point x="1704" y="-320" type="line"/>
    </contour>
  </outline>
</glyph>
<glyph name="slashshort.uc" format="2">
  <advance width="709"/>
  <outline>
    <contour>
      <point x="0" y="671" type="line"/>
      <point x="0" y="724" type="line"/>
      <point x="709" y="1134" type="line"/>
      <point x="709" y="1081" type="line"/>
    </contour>
  </outline>
</glyph>
<glyph name="tildedieresiscomb.lc" format="2">
  <advance width="1018"/>
  <outline>
    <contour>
      <point x="633" y="1310" type="qcurve" smooth="yes"/>
      <point x="591" y="1310"/>
      <point x="529" y="1346"/>
      <point x="477" y="1392"/>
      <point x="423" y="1428"/>
      <point x="388" y="1428" type="qcurve" smooth="yes"/>
      <point x="339" y="1428"/>
      <point x="277" y="1369"/>
      <point x="272" y="1317" type="qcurve"/>
      <point x="226" y="1317" type="line"/>
      <point x="232" y="1385"/>
      <point x="316" y="1474"/>
      <point x="380" y="1474" type="qcurve" smooth="yes"/>
      <point x="427" y="1474"/>
      <point x="492" y="1438"/>
      <point x="544" y="1392"/>
      <point x="594" y="1356"/>
      <point x="625" y="1356" type="qcurve" smooth="yes"/>
      <point x="668" y="1356"/>
      <point x="723" y="1406"/>
      <point x="735" y="1463" type="qcurve"/>
      <point x="782" y="1463" type="line"/>
      <point x="770" y="1392"/>
      <point x="690" y="1310"/>
    </contour>
    <contour>
      <point x="711" y="1634" type="qcurve" smooth="yes"/>
      <point x="692" y="1634"/>
      <point x="664" y="1662"/>
      <point x="664" y="1681" type="qcurve" smooth="yes"/>
      <point x="664" y="1701"/>
      <point x="692" y="1728"/>
      <point x="711" y="1728" type="qcurve" smooth="yes"/>
      <point x="731" y="1728"/>
      <point x="758" y="1701"/>
      <point x="758" y="1681" type="qcurve" smooth="yes"/>
      <point x="758" y="1662"/>
      <point x="731" y="1634"/>
    </contour>
    <contour>
      <point x="307" y="1634" type="qcurve" smooth="yes"/>
      <point x="288" y="1634"/>
      <point x="260" y="1662"/>
      <point x="260" y="1681" type="qcurve" smooth="yes"/>
      <point x="260" y="1701"/>
      <point x="288" y="1728"/>
      <point x="307" y="1728" type="qcurve" smooth="yes"/>
      <point x="327" y="1728"/>
      <point x="354" y="1701"/>
      <point x="354" y="1681" type="qcurve" smooth="yes"/>
      <point x="354" y="1662"/>
      <point x="327" y="1634"/>
    </contour>
  </outline>
</glyph>
<glyph name="tpalatalhook.1" format="2">
  <advance width="516"/>
  <anchor x="487" y="0" name="m.uni0326"/>
  <anchor x="371" y="1464" name="m.uni030F_1"/>
  <anchor x="573" y="0" name="m.uni0327_3"/>
  <outline>
    <contour>
      <point x="220" y="-412" type="qcurve"/>
      <point x="220" y="-366" type="line"/>
      <point x="239" y="-366"/>
      <point x="279" y="-366"/>
      <point x="292" y="-366" type="qcurve" smooth="yes"/>
      <point x="364" y="-366"/>
      <point x="430" y="-296"/>
      <point x="430" y="-214" type="qcurve" smooth="yes"/>
      <point x="430" y="4" type="line"/>
      <point x="476" y="4" type="line"/>
      <point x="476" y="-214" type="line" smooth="yes"/>
      <point x="476" y="-316"/>
      <point x="384" y="-412"/>
      <point x="292" y="-412" type="qcurve" smooth="yes"/>
      <point x="279" y="-412"/>
      <point x="237" y="-412"/>
    </contour>
    <contour>
      <point x="198" y="1384" type="line"/>
      <point x="244" y="1384" type="line"/>
      <point x="244" y="213" type="line" smooth="yes"/>
      <point x="244" y="113"/>
      <point x="345" y="18"/>
      <point x="431" y="40" type="qcurve" smooth="yes"/>
      <point x="439" y="42"/>
      <point x="457" y="47"/>
      <point x="465" y="49" type="qcurve"/>
      <point x="476" y="4" type="line"/>
      <point x="467" y="2"/>
      <point x="448" y="-3"/>
      <point x="439" y="-5" type="qcurve" smooth="yes"/>
      <point x="327" y="-32"/>
      <point x="198" y="97"/>
      <point x="198" y="213" type="qcurve" smooth="yes"/>
    </contour>
    <contour>
      <point x="476" y="1118" type="line"/>
      <point x="476" y="1072" type="line"/>
      <point x="221" y="1072" type="line"/>
      <point x="221" y="1118" type="line"/>
    </contour>
  </outline>
</glyph>
<glyph name="underscoredblcomb" format="2">
  <outline>
    <contour>
      <point x="-74" y="-126" type="line"/>
      <point x="-74" y="-174" type="line"/>
      <point x="-958" y="-174" type="line"/>
      <point x="-958" y="-126" type="line"/>
    </contour>
    <contour>
      <point x="-74" y="-366" type="line"/>
      <point x="-74" y="-412" type="line"/>
      <point x="-958" y="-412" type="line"/>
      <point x="-958" y="-366" type="line"/>
    </contour>
  </outline>
</glyph>
